0
SECTION
2
HEADER
9
$ACADVER
1
AC1015
9
$ACADMAINTVER
70
6
9
$ACADVER
1
AC1015
9
$DWGCODEPAGE
3
ANSI_1252
9
$INSBASE
10
0
20
0
30
0
9
$EXTMIN
10
-1350
20
-1434.50000000001
30
-0.075
9
$EXTMAX
10
4200
20
1434.5
30
0.075
9
$LIMMIN
10
0
20
0
9
$LIMMAX
10
1
20
1
9
$ORTHOMODE
70
0
9
$REGENMODE
70
1
9
$FILLMODE
70
1
9
$QTEXTMODE
70
0
9
$MIRRTEXT
70
1
9
$LTSCALE
40
1
9
$ATTMODE
70
1
9
$TEXTSIZE
40
0.2
9
$TRACEWID
40
0.05
9
$TEXTSTYLE
7
ARIAL
9
$CLAYER
8
3
9
$CELTYPE
6
ByLayer
9
$CECOLOR
62
256
9
$CELTSCALE
40
1
9
$DISPSILH
70
0
9
$DIMSCALE
40
50
9
$DIMASZ
40
1.2
9
$DIMEXO
40
1
9
$DIMRND
40
0.0
9
$DIMDLE
40
0.0
9
$DIMEXE
40
0
9
$DIMTP
40
0
9
$DIMTM
40
0
9
$DIMTXT
40
2.5
9
$DIMTSZ
40
0.0
9
$DIMTOL
70
0
9
$DIMLIM
70
0
9
$DIMTIH
70
0
9
$DIMTOH
70
1
9
$DIMSE1
70
-1
9
$DIMSE2
70
-1
9
$DIMTAD
70
0
9
$DIMZIN
70
1
9
$DIMBLK
1
_ArchTick
9
$DIMASO
70
1
9
$DIMSHO
70
1
9
$DIMPOST
1

9
$DIMAPOST
1

9
$DIMALT
70
0
9
$DIMBLK1
1

9
$DIMBLK2
1

9
$DIMSTYLE
2
Dai Coc
9
$DIMCLRE
70
8
9
$DIMCLRE
70
8
9
$DIMCLRT
70
1
9
$DIMTFAC
40
50
9
$DIMJUST
70
0
9
$DIMSD1
70
-1
9
$DIMSD2
70
-1
9
$DIMTOLJ
70
1
9
$DIMTXSTY
7
romans.shx
9
$DIMAUNIT
70
0
9
$DIMADEC
70
0
9
$DIMAZIN
70
0
9
$DIMLUNIT
70
2
9
$LUNITS
70
2
9
$LUPREC
70
4
9
$FILLETRAD
40
0.5
9
$AUNITS
70
0
9
$AUPREC
70
0
9
$MENU
1

9
$ELEVATION
40
0.0
9
$PELEVATION
40
0.0
9
$THICKNESS
40
0.0
9
$ANGBASE
50
0
9
$ANGDIR
70
0
9
$PDMODE
70
0
9
$PDSIZE
40
0
9
$PLINEWID
40
0
9
$SPLFRAME
70
0
9
$SPLINETYPE
70
6
9
$SPLINESEGS
70
8
9
$HANDSEED
5
         1309
 9
$SURFTAB1
70
6
9
$SURFTAB2
70
6
9
$SURFTYPE
70
6
9
$SURFU
70
6
9
$SURFV
70
6
9
$UCSBASE
2

9
$UCSNAME
2

9
$UCSORG
10
0.0
20
0.0
30
0.0
9
$UCSXDIR
10
1.0
20
0.0
30
0.0
9
$UCSYDIR
10
0.0
20
1.0
30
0.0
9
$UCSORGTOP
10
0.0
20
0.0
30
0.0
9
$UCSORGBOTTOM
10
0.0
20
0.0
30
0.0
9
$UCSORGLEFT
10
0.0
20
0.0
30
0.0
9
$UCSORGRIGHT
10
0.0
20
0.0
30
0.0
9
$UCSORGFRONT
10
0.0
20
0.0
30
0.0
9
$UCSORGBACK
10
0.0
20
0.0
30
0.0
9
$PUCSBASE
2

9
$PUCSNAME
2

9
$PUCSORG
10
0.0
20
0.0
30
0.0
9
$PUCSXDIR
10
1.0
20
0.0
30
0.0
9
$PUCSYDIR
10
0.0
20
1.0
30
0.0
9
$PUCSORGTOP
10
0.0
20
0.0
30
0.0
9
$PUCSORGBOTTOM
10
0.0
20
0.0
30
0.0
9
$PUCSORGLEFT
10
0.0
20
0.0
30
0.0
9
$PUCSORGRIGHT
10
0.0
20
0.0
30
0.0
9
$PUCSORGFRONT
10
0.0
20
0.0
30
0.0
9
$PUCSORGBACK
10
0.0
20
0.0
30
0.0
9
$USERI1
70
0
9
$USERI2
70
0
9
$USERI3
70
0
9
$USERI4
70
0
9
$USERI5
70
0
9
$USERR1
40
0.0
9
$USERR2
40
0.0
9
$USERR3
40
0.0
9
$USERR4
40
0.0
9
$USERR5
40
0.0
9
$TILEMODE
70
1
9
$PINSBASE
10
0.0
20
0.0
30
0.0
9
$LWDISPLAY
290
0
0
ENDSEC
0
SECTION
2
CLASSES
0
CLASS
1
ACDBDICTIONARYWDFLT
2
AcDbDictionaryWithDefault
3
ObjectDBX Classes
90
0
280
0
281
0
0
CLASS
1
IMAGEDEF
2
AcDbRasterImageDef
3
ISM
90
0
280
0
281
0
0
CLASS
1
IMAGE
2
AcDbRasterImage
3
ISM
90
127
280
0
281
1
0
CLASS
1
IMAGEDEF_REACTOR
2
AcDbRasterImageDefReactor
3
ISM
90
1
280
0
281
0
0
CLASS
1
ACDBPLACEHOLDER
2
AcDbPlaceHolder
3
ObjectDBX Classes
90
0
280
0
281
0
0
CLASS
1
LAYOUT
2
AcDbLayout
3
ObjectDBX Classes
90
0
280
0
281
0
0
ENDSEC
0
SECTION
2
TABLES
0
TABLE
2
VPORT
5
122F
330
0
100
AcDbSymbolTable
70
2
0
VPORT
5
1230
330
122F
100
AcDbSymbolTableRecord
100
AcDbViewportTableRecord
2
*Active
70
0
10
0.0
20
0.0
11
1.0
21
1.0
12
1352.90051569289
22
-85.0642313648586
13
0.0
23
0.0
14
1.0
24
1.0
15
1.0
25
1.0
16
0
26
0
36
1
17
0
27
0
37
0
40
2875.6643437863
41
1.0
42
50
43
0.0
44
0.0
50
0.0
51
0
71
0
72
100
73
1
74
3
75
0
76
0
77
0
78
0
281
0
281
0
65
1
110
0.0
120
0.0
130
0.0
111
1.0
121
0.0
131
0.0
112
0.0
122
1.0
132
0.0
79
0
146
0.0
0
ENDTAB
0
TABLE
2
LTYPE
5
1231
330
0
100
AcDbSymbolTable
70
25
0
LTYPE
5
1232
330
1231
100
AcDbSymbolTableRecord
100
AcDbLinetypeTableRecord
2
ByBlock
70
0
3

72
65
73
0
40
0.0
0
LTYPE
5
1233
330
1231
100
AcDbSymbolTableRecord
100
AcDbLinetypeTableRecord
2
ByLayer
70
0
3

72
65
73
0
40
0.0
0
LTYPE
5
1234
330
1231
100
AcDbSymbolTableRecord
100
AcDbLinetypeTableRecord
2
CONTINUOUS
70
0
3

72
65
73
0
40
0.0
0
LTYPE
5
1235
330
1231
100
AcDbSymbolTableRecord
100
AcDbLinetypeTableRecord
2
CENTER
70
0
3
Center ____ _ ____ _ ____ _ ____ _ ____ _ ____
72
65
73
4
40
50.8
49
31.75
74
0
49
-6.35
74
0
49
6.35
74
0
49
-6.35
74
0
0
LTYPE
5
1236
330
1231
100
AcDbSymbolTableRecord
100
AcDbLinetypeTableRecord
2
DASHDOT
70
0
3
Dashdot __ . __ . __ . __ . __ . __ . __ . __
72
65
73
4
40
1
49
0.5
74
0
49
-0.25
74
0
49
0
74
0
49
-0.25
74
0
0
LTYPE
5
1237
330
1231
100
AcDbSymbolTableRecord
100
AcDbLinetypeTableRecord
2
DASHED
70
0
3
Dashed __ __ __ __ __ __ __ __ __ __ __ __ __ _
72
65
73
2
40
0.75
49
0.5
74
0
49
-0.25
74
0
0
LTYPE
5
1238
330
1231
100
AcDbSymbolTableRecord
100
AcDbLinetypeTableRecord
2
HIDDEN
70
0
3
Hidden __ __ __ __ __ __ __ __ __ __ __ __ __ _
72
65
73
2
40
9.525
49
6.35
74
0
49
-3.175
74
0
0
LTYPE
5
1239
330
1231
100
AcDbSymbolTableRecord
100
AcDbLinetypeTableRecord
2
HIDDEN2
70
0
3
Hidden2 _ _ _ _ _ _ _ _ _ _ _ _ _ _ _ _ _ 
72
65
73
2
40
0.1875
49
0.125
74
0
49
-0.0625
74
0
0
LTYPE
5
123A
330
1231
100
AcDbSymbolTableRecord
100
AcDbLinetypeTableRecord
2
BORDER
70
0
3
Border __ __ . __ __ . __ __ . __ __ . __ __ .
72
65
73
6
40
1.75
49
0.5
74
0
49
-0.25
74
0
49
0.5
74
0
49
-0.25
74
0
49
0
74
0
49
-0.25
74
0
0
LTYPE
5
123B
330
1231
100
AcDbSymbolTableRecord
100
AcDbLinetypeTableRecord
2
BORDER2
70
0
3
Border2 __.__.__.__.__.__.__.__.__.__.__.
72
65
73
6
40
0.875
49
0.25
74
0
49
-0.125
74
0
49
0.25
74
0
49
-0.125
74
0
49
0
74
0
49
-0.125
74
0
0
LTYPE
5
123C
330
1231
100
AcDbSymbolTableRecord
100
AcDbLinetypeTableRecord
2
BORDERX2
70
0
3
Borderx2  ____  ____  .  ____  ____  .  ___
72
65
73
6
40
3.5
49
1
74
0
49
-0.5
74
0
49
1
74
0
49
-0.5
74
0
49
0
74
0
49
-0.5
74
0
0
LTYPE
5
123D
330
1231
100
AcDbSymbolTableRecord
100
AcDbLinetypeTableRecord
2
CENTER2
70
0
3
Center2  ___ _ ___ _ ___ _ ___ _ ___ _ ___
72
65
73
4
40
1.125
49
0.75
74
0
49
-0.125
74
0
49
0.125
74
0
49
-0.125
74
0
0
LTYPE
5
123E
330
1231
100
AcDbSymbolTableRecord
100
AcDbLinetypeTableRecord
2
CENTERX2
70
0
3
Centerx2  ________  __  ________  __  _____
72
65
73
4
40
4
49
2.5
74
0
49
-0.5
74
0
49
0.5
74
0
49
-0.5
74
0
0
LTYPE
5
123F
330
1231
100
AcDbSymbolTableRecord
100
AcDbLinetypeTableRecord
2
DASHDOT2
70
0
3
Dashdot2  _._._._._._._._._._._._._._._.
72
65
73
4
40
0.5
49
0.25
74
0
49
-0.125
74
0
49
0
74
0
49
-0.125
74
0
0
LTYPE
5
1240
330
1231
100
AcDbSymbolTableRecord
100
AcDbLinetypeTableRecord
2
DASHDOTX2
70
0
3
Dashdotx2 ____  .  ____  .  ____  .  ___
72
65
73
4
40
2
49
1
74
0
49
-0.5
74
0
49
0
74
0
49
-0.5
74
0
0
LTYPE
5
1241
330
1231
100
AcDbSymbolTableRecord
100
AcDbLinetypeTableRecord
2
DASHED2
70
0
3
Dashed2 _ _ _ _ _ _ _ _ _ _ _ _ _ _ _ _ _ 
72
65
73
2
40
0.375
49
0.25
74
0
49
-0.125
74
0
0
LTYPE
5
1242
330
1231
100
AcDbSymbolTableRecord
100
AcDbLinetypeTableRecord
2
DASHEDX2
70
0
3
Dashedx2 ____  ____  ____  ____  ____  ___
72
65
73
2
40
1.5
49
1
74
0
49
-0.5
74
0
0
LTYPE
5
1243
330
1231
100
AcDbSymbolTableRecord
100
AcDbLinetypeTableRecord
2
DIVIDE
70
0
3
Divide ____ . . ____ . . ____ . . ____ . . ____
72
65
73
6
40
1.25
49
0.5
74
0
49
-0.25
74
0
49
0
74
0
49
-0.25
74
0
49
0
74
0
49
-0.25
74
0
0
LTYPE
5
1244
330
1231
100
AcDbSymbolTableRecord
100
AcDbLinetypeTableRecord
2
DIVIDE2
70
0
3
Divide2 __..__..__..__..__..__..__..__.._
72
65
73
6
40
0.625
49
0.25
74
0
49
-0.125
74
0
49
0
74
0
49
-0.125
74
0
49
0
74
0
49
-0.125
74
0
0
LTYPE
5
1245
330
1231
100
AcDbSymbolTableRecord
100
AcDbLinetypeTableRecord
2
DIVIDEX2
70
0
3
Dividex2 ________  .  .  ________  .  .  _
72
65
73
6
40
2.5
49
1
74
0
49
-0.5
74
0
49
0
74
0
49
-0.5
74
0
49
0
74
0
49
-0.5
74
0
0
LTYPE
5
1246
330
1231
100
AcDbSymbolTableRecord
100
AcDbLinetypeTableRecord
2
DOT
70
0
3
Dot . . . . . . . . . . . . . . . . . . . . . . . .
72
65
73
2
40
0.25
49
0
74
0
49
-0.25
74
0
0
LTYPE
5
1247
330
1231
100
AcDbSymbolTableRecord
100
AcDbLinetypeTableRecord
2
DOT2
70
0
3
Dot2 ........................................
72
65
73
2
40
0.125
49
0
74
0
49
-0.125
74
0
0
LTYPE
5
1248
330
1231
100
AcDbSymbolTableRecord
100
AcDbLinetypeTableRecord
2
DOTX2
70
0
3
Dotx2 .  .  .  .  .  .  .  .  .  .  .  .  .  .
72
65
73
2
40
0.5
49
0
74
0
49
-0.5
74
0
0
LTYPE
5
1249
330
1231
100
AcDbSymbolTableRecord
100
AcDbLinetypeTableRecord
2
HIDDENX2
70
0
3
Hiddenx2 ____ ____ ____ ____ ____ ____ ____ 
72
65
73
2
40
0.75
49
0.5
74
0
49
-0.25
74
0
0
LTYPE
5
124A
330
1231
100
AcDbSymbolTableRecord
100
AcDbLinetypeTableRecord
2
PHANTOM
70
0
3
Phantom ______  __  __  ______  __  __  ______ 
72
65
73
6
40
2.5
49
1.25
74
0
49
-0.25
74
0
49
0.25
74
0
49
-0.25
74
0
49
0.25
74
0
49
-0.25
74
0
0
LTYPE
5
124B
330
1231
100
AcDbSymbolTableRecord
100
AcDbLinetypeTableRecord
2
PHANTOM2
70
0
3
Phantom2 ___ _ _ ___ _ _ ___ _ _ ___ _ _
72
65
73
6
40
1.25
49
0.625
74
0
49
-0.125
74
0
49
0.125
74
0
49
-0.125
74
0
49
0.125
74
0
49
-0.125
74
0
0
LTYPE
5
124C
330
1231
100
AcDbSymbolTableRecord
100
AcDbLinetypeTableRecord
2
PHANTOMX2
70
0
3
Phantomx2 ____________    ____    ____   _
72
65
73
6
40
5
49
2.5
74
0
49
-0.5
74
0
49
0.5
74
0
49
-0.5
74
0
49
0.5
74
0
49
-0.5
74
0
0
LTYPE
5
124D
330
1231
100
AcDbSymbolTableRecord
100
AcDbLinetypeTableRecord
2
ACAD_ISO03W100
70
0
3
ISO dash space __    __    __    __    __    __
72
65
73
2
40
30
49
12
74
0
49
-18
74
0
0
ENDTAB
0
TABLE
2
LAYER
5
124F
330
0
100
AcDbSymbolTable
70
16
0
LAYER
5
10
330
124F
100
AcDbSymbolTableRecord
100
AcDbLayerTableRecord
2
0
70
4
62
     7
6
Continuous
370
20
390
124E
0
LAYER
5
166
330
124F
100
AcDbSymbolTableRecord
100
AcDbLayerTableRecord
2
Dim
70
0
62
     8
6
Continuous
370
15
390
124E
1001
RAK
1000
{ACET-LAYISO
1070
0
1070
8
1000
Continuous
1071
15
1071
1
1005
F
1000
ACET-LAYISO}
0
LAYER
5
169
330
124F
100
AcDbSymbolTableRecord
100
AcDbLayerTableRecord
2
Defpoints
70
0
62
     7
6
Continuous
290
0
370
-3
390
124E
1001
RAK
1000
{ACET-LAYISO
1070
0
1070
7
1000
Continuous
1071
-3
1071
0
1005
F
1000
ACET-LAYISO}
0
LAYER
5
16A
330
124F
100
AcDbSymbolTableRecord
100
AcDbLayerTableRecord
2
3
70
0
62
     3
6
Continuous
370
18
390
124E
1001
RAK
1000
{ACET-LAYISO
1070
0
1070
3
1000
Continuous
1071
-3
1071
1
1005
F
1000
ACET-LAYISO}
0
LAYER
5
16D
330
124F
100
AcDbSymbolTableRecord
100
AcDbLayerTableRecord
2
1
70
4
62
     1
6
Continuous
370
40
390
124E
1001
AcAecLayerStandard
1000

1000

1001
RAK
1000
{ACET-LAYISO
1070
0
1070
1
1000
Continuous
1071
-3
1071
1
1005
F
1000
ACET-LAYISO}
0
LAYER
5
170
330
124F
100
AcDbSymbolTableRecord
100
AcDbLayerTableRecord
2
8
70
0
62
     8
6
Continuous
370
13
390
124E
1001
AcAecLayerStandard
1000

1000

1001
RAK
1000
{ACET-LAYISO
1070
0
1070
8
1000
Continuous
1071
-3
1071
1
1005
F
1000
ACET-LAYISO}
0
LAYER
5
173
330
124F
100
AcDbSymbolTableRecord
100
AcDbLayerTableRecord
2
4
70
0
62
     4
6
HIDDEN
370
15
390
124E
1001
AcAecLayerStandard
1000

1000

1001
RAK
1000
{ACET-LAYISO
1070
0
1070
4
1000
HIDDEN
1071
-3
1071
1
1005
F
1000
ACET-LAYISO}
0
LAYER
5
176
330
124F
100
AcDbSymbolTableRecord
100
AcDbLayerTableRecord
2
2
70
0
62
     2
6
Continuous
370
20
390
124E
1001
AcAecLayerStandard
1000

1000

1001
RAK
1000
{ACET-LAYISO
1070
0
1070
2
1000
Continuous
1071
-3
1071
1
1005
F
1000
ACET-LAYISO}
0
LAYER
5
179
330
124F
100
AcDbSymbolTableRecord
100
AcDbLayerTableRecord
2
5
70
0
62
     5
6
ACAD_ISO03W100
370
-3
390
124E
1001
AcAecLayerStandard
1000

1000

1001
RAK
1000
{ACET-LAYISO
1070
0
1070
5
1000
ACAD_ISO03W100
1071
-3
1071
1
1005
F
1000
ACET-LAYISO}
0
LAYER
5
17C
330
124F
100
AcDbSymbolTableRecord
100
AcDbLayerTableRecord
2
Truc
70
0
62
     8
6
CENTER
370
9
390
124E
1001
AcAecLayerStandard
1000

1000

1001
RAK
1000
{ACET-LAYISO
1070
0
1070
8
1000
CENTER
1071
-3
1071
1
1005
F
1000
ACET-LAYISO}
0
LAYER
5
17F
330
124F
100
AcDbSymbolTableRecord
100
AcDbLayerTableRecord
2
7
70
0
62
     7
6
Continuous
370
20
390
124E
1001
AcAecLayerStandard
1000

1000

0
LAYER
5
8F2
330
124F
100
AcDbSymbolTableRecord
100
AcDbLayerTableRecord
2
NETVE
70
0
62
     11
6
Continuous
370
-3
390
124E
0
LAYER
5
8F3
330
124F
100
AcDbSymbolTableRecord
100
AcDbLayerTableRecord
2
TEXT
70
0
62
     2
6
Continuous
370
-3
390
124E
0
LAYER
5
8F4
330
124F
100
AcDbSymbolTableRecord
100
AcDbLayerTableRecord
2
THEP
70
0
62
     1
6
Continuous
370
30
390
124E
0
LAYER
5
1038
330
124F
100
AcDbSymbolTableRecord
100
AcDbLayerTableRecord
2
TKT
70
0
62
     1
6
Continuous
370
0
390
124E
0
LAYER
5
103A
330
124F
100
AcDbSymbolTableRecord
100
AcDbLayerTableRecord
2
Steel
70
0
62
     4
6
Continuous
370
0
390
124E
0
ENDTAB
0
TABLE
2
STYLE
5
1250
330
0
100
AcDbSymbolTable
70
15
0
STYLE
5
11
330
1250
100
AcDbSymbolTableRecord
100
AcDbTextStyleTableRecord
2
Standard
70
0
40
0
41
1.0
50
0.0
71
0
42
0.2
3
txt.shx
4

0
STYLE
5
182
330
1250
100
AcDbSymbolTableRecord
100
AcDbTextStyleTableRecord
2
romans.shx
70
0
40
0
41
1.0
50
0.0
71
0
42
0.2
3
romans.shx
4

0
STYLE
5
183
330
1250
100
AcDbSymbolTableRecord
100
AcDbTextStyleTableRecord
2
vntimeh.shx
70
0
40
0
41
1.0
50
0.0
71
0
42
0.2
3
vntimeh.shx
4

0
STYLE
5
184
330
1250
100
AcDbSymbolTableRecord
100
AcDbTextStyleTableRecord
2
.VnHelvetlnsH
70
0
40
0
41
1.0
50
0.0
71
0
42
0.2
3
.VnHelvetInsH
4

1001
ACAD
1000
.VnHelvetInsH
1071
33554432
0
STYLE
5
185
330
1250
100
AcDbSymbolTableRecord
100
AcDbTextStyleTableRecord
2
Symbol
70
0
40
0
41
1.0
50
0.0
71
0
42
0.2
3
Symbol
4

1001
ACAD
1000
Symbol
1071
0
0
STYLE
5
186
330
1250
100
AcDbSymbolTableRecord
100
AcDbTextStyleTableRecord
2
vnsimli.shx
70
0
40
0
41
1.0
50
0.0
71
0
42
0.2
3
vnsimli.shx
4

0
STYLE
5
187
330
1250
100
AcDbSymbolTableRecord
100
AcDbTextStyleTableRecord
2
.VnAvantH
70
0
40
0
41
1.0
50
0.0
71
0
42
0.2
3
.VnAvantH
4

1001
ACAD
1000
.VnAvantH
1071
0
0
STYLE
5
188
330
1250
100
AcDbSymbolTableRecord
100
AcDbTextStyleTableRecord
2
.VnBook-AntiquaH
70
0
40
0
41
1.0
50
0.0
71
0
42
0.2
3
.VnAvantH
4

1001
ACAD
1000
.VnAvantH
1071
0
0
STYLE
5
189
330
1250
100
AcDbSymbolTableRecord
100
AcDbTextStyleTableRecord
2
avanh
70
0
40
0
41
1.0
50
0.0
71
0
42
0.2
3
.VnAvantH
4

1001
ACAD
1000
.VnAvantH
1071
0
0
STYLE
5
810
330
1250
100
AcDbSymbolTableRecord
100
AcDbTextStyleTableRecord
2
text - 140
70
0
40
140
41
1.0
50
0.0
71
0
42
0.2
3
romans.shx
4

0
STYLE
5
8F5
330
1250
100
AcDbSymbolTableRecord
100
AcDbTextStyleTableRecord
2
DIM
70
0
40
0
41
1.0
50
0.0
71
0
42
0.2
3
romans.shx
4

0
STYLE
5
8F6
330
1250
100
AcDbSymbolTableRecord
100
AcDbTextStyleTableRecord
2
ROMANS
70
0
40
0
41
1.0
50
0.0
71
0
42
0.2
3
romans.shx
4

0
STYLE
5
8F7
330
1250
100
AcDbSymbolTableRecord
100
AcDbTextStyleTableRecord
2
VNTIMEH
70
0
40
0
41
1.0
50
0.0
71
0
42
0.2
3
vntimeh.shx
4

0
STYLE
5
8F8
330
1250
100
AcDbSymbolTableRecord
100
AcDbTextStyleTableRecord
2
VNAVANTH
70
0
40
0
41
1.0
50
0.0
71
0
42
0.2
3
.VnAvantH
4

1001
ACAD
1000
.VnAvantH
1071
0
0
STYLE
5
8F9
330
1250
100
AcDbSymbolTableRecord
100
AcDbTextStyleTableRecord
2
ARIAL
70
0
40
0
41
1.0
50
0.0
71
0
42
0.2
3
.VnArial
4

1001
ACAD
1000
.VnArial
1071
0
0
ENDTAB
0
TABLE
2
VIEW
5
1251
330
0
100
AcDbSymbolTable
70
0
0
ENDTAB
0
TABLE
2
UCS
5
1252
330
0
100
AcDbSymbolTable
70
0
0
ENDTAB
0
TABLE
2
APPID
5
1253
330
0
100
AcDbSymbolTable
70
24
0
APPID
5
1254
330
1253
100
AcDbSymbolTableRecord
100
AcDbRegAppTableRecord
2
ACAD
70
0
0
APPID
5
1255
330
1253
100
AcDbSymbolTableRecord
100
AcDbRegAppTableRecord
2
VD_INVISIBLE_NOT_FOR_READ
70
0
0
APPID
5
1256
330
1253
100
AcDbSymbolTableRecord
100
AcDbRegAppTableRecord
2
VD_TEMPHATCH
70
0
0
APPID
5
1257
330
1253
100
AcDbSymbolTableRecord
100
AcDbRegAppTableRecord
2
VDEXTRAPARAM
70
0
0
APPID
5
1258
330
1253
100
AcDbSymbolTableRecord
100
AcDbRegAppTableRecord
2
VDEXTRALINETYPE
70
0
0
APPID
5
1259
330
1253
100
AcDbSymbolTableRecord
100
AcDbRegAppTableRecord
2
PE_URL
70
0
0
APPID
5
125A
330
1253
100
AcDbSymbolTableRecord
100
AcDbRegAppTableRecord
2
VD_UNKNOWN
70
0
0
APPID
5
125B
330
1253
100
AcDbSymbolTableRecord
100
AcDbRegAppTableRecord
2
VD_EX_PRINTER_DWG_STYLE_SHEET
70
0
0
APPID
5
125C
330
1253
100
AcDbSymbolTableRecord
100
AcDbRegAppTableRecord
2
VD_EX_PRINTER_SIZEX
70
0
0
APPID
5
125D
330
1253
100
AcDbSymbolTableRecord
100
AcDbRegAppTableRecord
2
VD_EX_PRINTER_AVSIZEX
70
0
0
APPID
5
125E
330
1253
100
AcDbSymbolTableRecord
100
AcDbRegAppTableRecord
2
VD_EX_PRINTER_SIZEY
70
0
0
APPID
5
125F
330
1253
100
AcDbSymbolTableRecord
100
AcDbRegAppTableRecord
2
VD_EX_PRINTER_AVSIZEY
70
0
0
APPID
5
1260
330
1253
100
AcDbSymbolTableRecord
100
AcDbRegAppTableRecord
2
VD_EX_PRINTER_NAME
70
0
0
APPID
5
1261
330
1253
100
AcDbSymbolTableRecord
100
AcDbRegAppTableRecord
2
VD_EX_PRINTER_PAPER
70
0
0
APPID
5
1262
330
1253
100
AcDbSymbolTableRecord
100
AcDbRegAppTableRecord
2
VD_EX_PRINTER_ORIENT
70
0
0
APPID
5
1263
330
1253
100
AcDbSymbolTableRecord
100
AcDbRegAppTableRecord
2
VD_EX_PRINTER_MARX
70
0
0
APPID
5
1264
330
1253
100
AcDbSymbolTableRecord
100
AcDbRegAppTableRecord
2
VD_EX_PRINTER_MARY
70
0
0
APPID
5
1265
330
1253
100
AcDbSymbolTableRecord
100
AcDbRegAppTableRecord
2
VD_EX_PRINTER_PAPER_NAME
70
0
0
APPID
5
1266
330
1253
100
AcDbSymbolTableRecord
100
AcDbRegAppTableRecord
2
RAK
70
0
0
APPID
5
1267
330
1253
100
AcDbSymbolTableRecord
100
AcDbRegAppTableRecord
2
AcAecLayerStandard
70
0
0
APPID
5
1268
330
1253
100
AcDbSymbolTableRecord
100
AcDbRegAppTableRecord
2
ACAD_DSTYLE_DIMJAG
70
0
0
APPID
5
1269
330
1253
100
AcDbSymbolTableRecord
100
AcDbRegAppTableRecord
2
ACAD_DSTYLE_DIMTALN
70
0
0
APPID
5
126A
330
1253
100
AcDbSymbolTableRecord
100
AcDbRegAppTableRecord
2
ACAD_DSTYLE_DIMBREAK
70
0
0
APPID
5
126B
330
1253
100
AcDbSymbolTableRecord
100
AcDbRegAppTableRecord
2
AcadAnnotative
70
0
0
APPID
5
126C
330
1253
100
AcDbSymbolTableRecord
100
AcDbRegAppTableRecord
2
AcDbBlockRepETag
70
0
0
APPID
5
126D
330
1253
100
AcDbSymbolTableRecord
100
AcDbRegAppTableRecord
2
AcDbAttr
70
0
0
ENDTAB
0
TABLE
2
BLOCK_RECORD
5
126F
330
0
100
AcDbSymbolTable
70
46
0
BLOCK_RECORD
5
1270
330
126F
100
AcDbSymbolTableRecord
100
AcDbBlockTableRecord
2
*Model_Space
340
126E
0
BLOCK_RECORD
5
1271
330
126F
100
AcDbSymbolTableRecord
100
AcDbBlockTableRecord
2
*Paper_Space
340
11D0
0
BLOCK_RECORD
5
1272
330
126F
100
AcDbSymbolTableRecord
100
AcDbBlockTableRecord
2
*Paper_Space0
340
11D1
0
BLOCK_RECORD
5
1273
330
126F
100
AcDbSymbolTableRecord
100
AcDbBlockTableRecord
2
VDDIM_DEFAULT
340
0
0
BLOCK_RECORD
5
1274
330
126F
100
AcDbSymbolTableRecord
100
AcDbBlockTableRecord
2
VDDIM_NONE
340
0
0
BLOCK_RECORD
5
1275
330
126F
100
AcDbSymbolTableRecord
100
AcDbBlockTableRecord
2
_ArchTick
340
0
0
BLOCK_RECORD
5
1276
330
126F
100
AcDbSymbolTableRecord
100
AcDbBlockTableRecord
2
mc
340
0
0
BLOCK_RECORD
5
1277
330
126F
100
AcDbSymbolTableRecord
100
AcDbBlockTableRecord
2
thep
340
0
0
BLOCK_RECORD
5
1278
330
126F
100
AcDbSymbolTableRecord
100
AcDbBlockTableRecord
2
ghichu
340
0
0
BLOCK_RECORD
5
1279
330
126F
100
AcDbSymbolTableRecord
100
AcDbBlockTableRecord
2
ghichu'
340
0
0
BLOCK_RECORD
5
127A
330
126F
100
AcDbSymbolTableRecord
100
AcDbBlockTableRecord
2
ct
340
0
0
BLOCK_RECORD
5
127B
330
126F
100
AcDbSymbolTableRecord
100
AcDbBlockTableRecord
2
dx
340
0
0
BLOCK_RECORD
5
127C
330
126F
100
AcDbSymbolTableRecord
100
AcDbBlockTableRecord
2
ct1
340
0
0
BLOCK_RECORD
5
127D
330
126F
100
AcDbSymbolTableRecord
100
AcDbBlockTableRecord
2
ct2
340
0
0
BLOCK_RECORD
5
127E
330
126F
100
AcDbSymbolTableRecord
100
AcDbBlockTableRecord
2
A3
340
0
0
BLOCK_RECORD
5
127F
330
126F
100
AcDbSymbolTableRecord
100
AcDbBlockTableRecord
2
mct
340
0
0
BLOCK_RECORD
5
1280
330
126F
100
AcDbSymbolTableRecord
100
AcDbBlockTableRecord
2
ct1a1
340
0
0
BLOCK_RECORD
5
1281
330
126F
100
AcDbSymbolTableRecord
100
AcDbBlockTableRecord
2
ct2a1
340
0
0
BLOCK_RECORD
5
1282
330
126F
100
AcDbSymbolTableRecord
100
AcDbBlockTableRecord
2
VD_ANONYM_6EB
340
0
0
BLOCK_RECORD
5
1283
330
126F
100
AcDbSymbolTableRecord
100
AcDbBlockTableRecord
2
NUTVACH
340
0
0
BLOCK_RECORD
5
1284
330
126F
100
AcDbSymbolTableRecord
100
AcDbBlockTableRecord
2
TK_2
340
0
0
BLOCK_RECORD
5
1285
330
126F
100
AcDbSymbolTableRecord
100
AcDbBlockTableRecord
2
TK_1
340
0
0
BLOCK_RECORD
5
1286
330
126F
100
AcDbSymbolTableRecord
100
AcDbBlockTableRecord
2
TK_3
340
0
0
BLOCK_RECORD
5
1287
330
126F
100
AcDbSymbolTableRecord
100
AcDbBlockTableRecord
2
TK_5
340
0
0
BLOCK_RECORD
5
1288
330
126F
100
AcDbSymbolTableRecord
100
AcDbBlockTableRecord
2
TK_7
340
0
0
BLOCK_RECORD
5
1289
330
126F
100
AcDbSymbolTableRecord
100
AcDbBlockTableRecord
2
TK_8
340
0
0
BLOCK_RECORD
5
128A
330
126F
100
AcDbSymbolTableRecord
100
AcDbBlockTableRecord
2
label_truc
340
0
0
BLOCK_RECORD
5
128B
330
126F
100
AcDbSymbolTableRecord
100
AcDbBlockTableRecord
2
label_truc1
340
0
0
BLOCK_RECORD
5
128C
330
126F
100
AcDbSymbolTableRecord
100
AcDbBlockTableRecord
2
label_trucngang
340
0
0
BLOCK_RECORD
5
128D
330
126F
100
AcDbSymbolTableRecord
100
AcDbBlockTableRecord
2
label_trucdung
340
0
0
BLOCK_RECORD
5
128E
330
126F
100
AcDbSymbolTableRecord
100
AcDbBlockTableRecord
2
VD_ANONYM_FE1
340
0
0
BLOCK_RECORD
5
128F
330
126F
100
AcDbSymbolTableRecord
100
AcDbBlockTableRecord
2
VD_ANONYM_FF0
340
0
0
BLOCK_RECORD
5
1290
330
126F
100
AcDbSymbolTableRecord
100
AcDbBlockTableRecord
2
VD_ANONYM_1006
340
0
0
BLOCK_RECORD
5
1291
330
126F
100
AcDbSymbolTableRecord
100
AcDbBlockTableRecord
2
NodeRight
340
0
0
BLOCK_RECORD
5
1292
330
126F
100
AcDbSymbolTableRecord
100
AcDbBlockTableRecord
2
NodeLeft
340
0
0
BLOCK_RECORD
5
1293
330
126F
100
AcDbSymbolTableRecord
100
AcDbBlockTableRecord
2
NodeLeft1
340
0
0
BLOCK_RECORD
5
1294
330
126F
100
AcDbSymbolTableRecord
100
AcDbBlockTableRecord
2
NodeRight1
340
0
0
BLOCK_RECORD
5
1295
330
126F
100
AcDbSymbolTableRecord
100
AcDbBlockTableRecord
2
NodeTop
340
0
0
BLOCK_RECORD
5
1296
330
126F
100
AcDbSymbolTableRecord
100
AcDbBlockTableRecord
2
NodeBottom
340
0
0
BLOCK_RECORD
5
1297
330
126F
100
AcDbSymbolTableRecord
100
AcDbBlockTableRecord
2
NodeBottom1
340
0
0
BLOCK_RECORD
5
1298
330
126F
100
AcDbSymbolTableRecord
100
AcDbBlockTableRecord
2
NodeTop1
340
0
0
BLOCK_RECORD
5
1299
330
126F
100
AcDbSymbolTableRecord
100
AcDbBlockTableRecord
2
VD_ANONYM_10DD
340
0
0
BLOCK_RECORD
5
129A
330
126F
100
AcDbSymbolTableRecord
100
AcDbBlockTableRecord
2
Chuthichthep
340
0
0
BLOCK_RECORD
5
129B
330
126F
100
AcDbSymbolTableRecord
100
AcDbBlockTableRecord
2
thep_doc_cot
340
0
0
BLOCK_RECORD
5
129C
330
126F
100
AcDbSymbolTableRecord
100
AcDbBlockTableRecord
2
VD_ANONYM_D1
340
0
0
BLOCK_RECORD
5
129D
330
126F
100
AcDbSymbolTableRecord
100
AcDbBlockTableRecord
2
VD_ANONYM_D2
340
0
0
BLOCK_RECORD
5
129E
330
126F
100
AcDbSymbolTableRecord
100
AcDbBlockTableRecord
2
VD_ANONYM_D3
340
0
0
BLOCK_RECORD
5
129F
330
126F
100
AcDbSymbolTableRecord
100
AcDbBlockTableRecord
2
VD_ANONYM_D4
340
0
0
ENDTAB
0
TABLE
2
DIMSTYLE
5
12A0
330
0
100
AcDbSymbolTable
70
7
100
AcDbDimStyleTable
71
7
340
12A1
340
12A2
340
12A3
340
12A4
340
12A5
340
12A6
340
12A7
0
DIMSTYLE
105
12A1
330
12A0
100
AcDbSymbolTableRecord
100
AcDbDimStyleTableRecord
2
Standard
70
0
70
0
41
0.2
42
0.05
44
0.2
75
0
76
0
40
1
281
0
282
0
275
0
277
2
179
0
71
0
47
0
48
0
78
1
140
0.2
147
0.09
280
0
77
0
73
1
271
4
340
11
0
DIMSTYLE
105
12A2
330
12A0
100
AcDbSymbolTableRecord
100
AcDbDimStyleTableRecord
2
RDSIC
70
0
70
0
41
1.2
177
8
42
0
44
1
75
0
76
0
40
1
281
0
282
0
275
0
277
2
179
0
71
0
47
0
48
0
78
1
176
8
178
3
140
2
147
0.5
280
0
77
1
73
0
271
0
340
182
342
1275
0
DIMSTYLE
105
12A3
330
12A0
100
AcDbSymbolTableRecord
100
AcDbDimStyleTableRecord
2
Dai Coc
70
0
70
0
41
1.2
177
8
42
0
44
1
75
0
76
0
40
50
281
0
282
0
275
0
277
2
179
0
71
0
47
0
48
0
78
1
176
8
178
1
140
2.5
147
0.5
280
0
77
1
73
0
271
0
340
182
342
1275
1001
ACAD_DSTYLE_DIMJAG
1070
388
1040
1.5
1001
ACAD_DSTYLE_DIMTALN
1070
392
1070
0
0
DIMSTYLE
105
12A4
330
12A0
100
AcDbSymbolTableRecord
100
AcDbDimStyleTableRecord
2
1
70
0
70
0
41
1
177
9
42
1
44
1
75
0
76
0
40
1
281
0
282
0
275
0
277
2
179
0
71
0
47
0
48
0
78
1
176
9
178
2
140
2.5
147
1
280
0
77
1
73
0
271
0
340
8F5
342
1275
0
DIMSTYLE
105
12A5
330
12A0
100
AcDbSymbolTableRecord
100
AcDbDimStyleTableRecord
2
coc
70
0
70
0
41
1.2
177
8
42
0
44
1
75
0
76
0
40
30
281
0
282
0
275
0
277
2
179
0
71
0
47
0
48
0
78
1
176
8
178
3
140
2.5
147
0.5
280
0
77
1
73
0
271
0
340
182
342
1275
1001
ACAD_DSTYLE_DIMBREAK
1070
391
1040
0.125
1001
ACAD_DSTYLE_DIMJAG
1070
388
1040
1.5
1001
ACAD_DSTYLE_DIMTALN
1070
392
1070
0
0
DIMSTYLE
105
12A6
330
12A0
100
AcDbSymbolTableRecord
100
AcDbDimStyleTableRecord
2
mccoc
70
0
70
0
41
1.2
177
8
42
0
44
1
75
0
76
0
40
30
281
0
282
0
275
0
277
2
179
0
71
0
47
0
48
0
78
1
176
8
178
3
140
2.5
147
0.5
280
0
77
1
73
0
144
0.5
271
0
340
182
342
1275
1001
ACAD_DSTYLE_DIMBREAK
1070
391
1040
0.125
1001
ACAD_DSTYLE_DIMJAG
1070
388
1040
1.5
1001
ACAD_DSTYLE_DIMTALN
1070
392
1070
0
0
DIMSTYLE
105
12A7
330
12A0
100
AcDbSymbolTableRecord
100
AcDbDimStyleTableRecord
2
Annotative
70
0
70
0
41
0.2
42
0.05
44
0.2
75
0
76
0
40
1
281
0
282
0
275
0
277
2
179
0
71
0
47
0
48
0
78
1
140
0.2
147
0.09
280
0
77
0
73
1
271
4
340
11
1001
AcadAnnotative
1000
AnnotativeData
1070
1
1070
1
1001
ACAD_DSTYLE_DIMJAG
1070
388
1040
1.5
1001
ACAD_DSTYLE_DIMTALN
1070
392
1070
0
0
ENDTAB
0
ENDSEC
0
SECTION
2
BLOCKS
0
BLOCK
5
12A8
330
1270
100
AcDbEntity
8
3
100
AcDbBlockBegin
2
*Model_Space
70
0
71
0
10
0.0
20
0.0
30
0.0
3
*Model_Space
1

0
ENDBLK
5
12A9
330
1270
100
AcDbEntity
67
1
8
3
100
AcDbBlockEnd
0
BLOCK
5
12AA
330
1271
100
AcDbEntity
8
3
100
AcDbBlockBegin
2
*Paper_Space
70
0
71
0
10
0.0
20
0.0
30
0.0
3
*Paper_Space
1

0
ENDBLK
5
12AB
330
1271
100
AcDbEntity
67
1
8
3
100
AcDbBlockEnd
0
BLOCK
5
12AC
330
1272
100
AcDbEntity
8
3
100
AcDbBlockBegin
2
*Paper_Space0
70
0
71
0
10
0.0
20
0.0
30
0.0
3
*Paper_Space0
1

0
VIEWPORT
5
12AD
330
1272
100
AcDbEntity
67
1
8
0
100
AcDbViewport
10
0
20
0
30
0
40
24.97
41
10
68
1
69
1
12
0
22
0
13
0.0
23
0.0
14
1.0
24
1.0
15
1.0
25
1.0
16
0
26
0
36
1
17
0
27
0
37
0
42
50.0
43
0.0
44
0.0
45
10
50
0.0
51
0
72
1000
90
32800
1

281
0
71
1
74
0
110
0.0
120
0.0
130
0.0
111
1.0
121
0.0
131
0.0
112
0.0
122
1.0
132
0.0
79
0
146
0.0
0
ENDBLK
5
12AE
330
1272
100
AcDbEntity
67
1
8
3
100
AcDbBlockEnd
0
BLOCK
5
7
330
1273
100
AcDbEntity
8
0
100
AcDbBlockBegin
2
VDDIM_DEFAULT
70
0
71
0
10
0
20
0
30
0
3
VDDIM_DEFAULT
1

0
LWPOLYLINE
5
8
330
1273
100
AcDbEntity
8
0
6
Continuous
62
0
100
AcDbPolyline
90
4
43
0
38
0
10
0
20
0
10
-1
20
-0.1665
10
-1
20
0.1665
10
0
20
0
1001
VDEXTRAPARAM
1071
1
1071
256
1071
256
1040
1
1000

1000

1040
0
1040
0
1071
-1023410176
1071
-1023410176
0
HATCH
5
12AF
330
1273
100
AcDbEntity
8
0
6
Continuous
62
0
100
AcDbHatch
10
0.0
20
0.0
30
0
210
0
220
0
230
1
2
SOLID
70
1
71
0
91
1
92
2
72
0
73
1
93
3
10
0
20
0
10
-1
20
-0.1665
10
-1
20
0.1665
97
0
75
0
76
1
98
1
10
0.0
20
0.0
1001
VDEXTRAPARAM
1071
1
1071
256
1071
256
1040
1
1000

1000

1040
0
1040
0
1071
-1023410176
1071
-1023410176
1001
VD_TEMPHATCH
1000
VD_TEMPHATCH
0
ENDBLK
5
12B0
330
1273
100
AcDbEntity
8
0
100
AcDbBlockEnd
0
BLOCK
5
9
330
1274
100
AcDbEntity
8
0
100
AcDbBlockBegin
2
VDDIM_NONE
70
0
71
0
10
0
20
0
30
0
3
VDDIM_NONE
1

0
ENDBLK
5
12B1
330
1274
100
AcDbEntity
8
0
100
AcDbBlockEnd
0
BLOCK
5
BA
330
1275
100
AcDbEntity
8
0
100
AcDbBlockBegin
2
_ArchTick
70
0
71
0
10
0
20
0
30
0
3
_ArchTick
1

0
LWPOLYLINE
5
BB
330
1275
100
AcDbEntity
8
Dim
62
0
100
AcDbPolyline
90
2
43
0.15
38
0
10
-0.5
20
-0.5
10
0.5
20
0.5
1001
VDEXTRAPARAM
1071
0
1071
256
1071
256
1040
1
1000

1000

1040
0.15
1040
0
1071
-1023410176
1071
-1023410176
0
ENDBLK
5
12B2
330
1275
100
AcDbEntity
8
0
100
AcDbBlockEnd
0
BLOCK
5
BE
330
1276
100
AcDbEntity
8
0
100
AcDbBlockBegin
2
mc
70
0
71
0
10
0
20
0
30
0
3
mc
1

0
LINE
5
BF
330
1276
100
AcDbEntity
8
0
62
1
48
2
100
AcDbLine
10
2.20665892143733
20
1.21827121876777
30
0
11
-2.2066589215392
21
1.21827121876777
31
0
0
LWPOLYLINE
5
11D2
330
1276
100
AcDbEntity
8
0
62
1
100
AcDbPolyline
90
3
43
0
38
0
10
0
20
0
10
2.14285714285714
20
0.885681533234666
10
-2.14285714285714
20
0.885681533234667
1001
VDEXTRAPARAM
1071
1
1071
1
1071
256
1040
1
1000

1000

1040
0
1040
0
1071
-1023410175
1071
-1023410176
0
HATCH
5
12B3
330
1276
100
AcDbEntity
8
0
62
1
100
AcDbHatch
10
0.0
20
0.0
30
0
210
0
220
0
230
1
2
SOLID
70
1
71
0
91
1
92
2
72
0
73
1
93
3
10
0
20
0
10
2.14285714285714
20
0.885681533234666
10
-2.14285714285714
20
0.885681533234667
97
0
75
0
76
1
98
1
10
0.0
20
0.0
1001
VDEXTRAPARAM
1071
1
1071
1
1071
256
1040
1
1000

1000

1040
0
1040
0
1071
-1023410175
1071
-1023410176
1001
VD_TEMPHATCH
1000
VD_TEMPHATCH
0
LWPOLYLINE
5
C0
330
1276
100
AcDbEntity
8
0
62
1
48
2
100
AcDbPolyline
90
2
43
2.5
38
0
10
0
20
0
10
0
20
0.885681533234674
1001
VDEXTRAPARAM
1071
0
1071
256
1071
256
1040
1
1000

1000

1040
2.5
1040
0
1071
-1023410176
1071
-1023410176
0
ATTDEF
5
C1
330
1276
100
AcDbEntity
8
0
100
AcDbText
10
-2.93124307216203
20
1.72146634395358
30
0
40
3
1
mc
72
4
7
.VnHelvetlnsH
11
0.068756927837967
21
3.22146634395358
31
0
100
AcDbAttributeDefinition
3
1
2
1
70
0
74
2
0
ENDBLK
5
12B4
330
1276
100
AcDbEntity
8
0
100
AcDbBlockEnd
0
BLOCK
5
C6
330
1277
100
AcDbEntity
8
0
100
AcDbBlockBegin
2
thep
70
0
71
0
10
0
20
0
30
0
3
thep
1

0
LINE
5
C7
330
1277
100
AcDbEntity
8
1
100
AcDbLine
10
-0.353553390596062
20
0.353553390592424
30
0
11
0.353553390596062
21
-0.353553390592424
31
0
0
LINE
5
C8
330
1277
100
AcDbEntity
8
1
100
AcDbLine
10
0.353553390596062
20
0.353553390592424
30
0
11
-0.353553390596062
21
-0.353553390592424
31
0
0
LINE
5
C9
330
1277
100
AcDbEntity
8
1
100
AcDbLine
10
-0.5
20
0
30
0
11
0.5
21
0
31
0
0
LINE
5
CA
330
1277
100
AcDbEntity
8
1
100
AcDbLine
10
0
20
0.5
30
0
11
0
21
-0.5
31
0
0
LWPOLYLINE
5
CB
330
1277
100
AcDbEntity
8
1
100
AcDbPolyline
90
3
43
8.33333333333334E-02
38
0
10
-0.5
20
-0.000000000001819
42
1
10
0.500000000014552
20
-0.000000000001819
42
1
10
-0.5
20
-0.000000000001819
42
1
1001
VDEXTRAPARAM
1071
0
1071
256
1071
256
1040
1
1000

1000

1040
8.33333333333334E-02
1040
0
1071
-1023410176
1071
-1023410176
0
ENDBLK
5
12B5
330
1277
100
AcDbEntity
8
0
100
AcDbBlockEnd
0
BLOCK
5
D0
330
1278
100
AcDbEntity
8
0
100
AcDbBlockBegin
2
ghichu
70
0
71
0
10
0
20
0
30
0
3
ghichu
1

0
CIRCLE
5
D1
330
1278
100
AcDbEntity
8
0
62
8
100
AcDbCircle
10
-2.5
20
0
30
0
40
2.5
0
ATTDEF
5
D2
330
1278
100
AcDbEntity
8
0
62
7
100
AcDbText
10
-2.72321428571429
20
-1.25
30
0
40
2.5
1
1
41
0.75
72
4
7
.VnHelvetlnsH
11
-2.5
21
0
31
0
100
AcDbAttributeDefinition
3
SH
2
SH
70
0
74
2
0
ATTDEF
5
D3
330
1278
100
AcDbEntity
8
0
62
3
100
AcDbText
10
0.564511179953115
20
0.845504307053488
30
0
40
2
1
%%c8
41
0.75
7
romans.shx
11
0
21
0
31
0
100
AcDbAttributeDefinition
3
DK
2
DK
70
0
74
0
0
ATTDEF
5
D4
330
1278
100
AcDbEntity
8
0
62
3
100
AcDbText
10
0.564511179953115
20
-2.97254430783141
30
0
40
2
1
150
41
0.75
7
romans.shx
11
0
21
0
31
0
100
AcDbAttributeDefinition
3
KC
2
KC
70
0
74
0
0
ENDBLK
5
12B6
330
1278
100
AcDbEntity
8
0
100
AcDbBlockEnd
0
BLOCK
5
D7
330
1279
100
AcDbEntity
8
0
100
AcDbBlockBegin
2
ghichu'
70
0
71
0
10
0
20
0
30
0
3
ghichu'
1

0
CIRCLE
5
D8
330
1279
100
AcDbEntity
8
0
62
8
100
AcDbCircle
10
2.5
20
0
30
0
40
2.5
0
ATTDEF
5
D9
330
1279
100
AcDbEntity
8
0
62
7
100
AcDbText
10
2.27678571428571
20
-1.25
30
0
40
2.5
1
1
41
0.75
72
4
7
.VnHelvetlnsH
11
2.5
21
0
31
0
100
AcDbAttributeDefinition
3
SH
2
SH
70
0
74
2
0
ATTDEF
5
DA
330
1279
100
AcDbEntity
8
0
62
3
100
AcDbText
10
-3.06996221142721
20
0.845504307053488
30
0
40
2
1
%%c8
41
0.75
72
2
7
romans.shx
11
-0.498533639998641
21
0.845504307053488
31
0
100
AcDbAttributeDefinition
3
DK
2
DK
70
0
74
0
0
ATTDEF
5
DB
330
1279
100
AcDbEntity
8
0
62
3
100
AcDbText
10
-4.56996221142721
20
-2.97254430783141
30
0
40
2
1
150
41
0.75
72
2
7
romans.shx
11
-0.498533639998641
21
-2.97254430783141
31
0
100
AcDbAttributeDefinition
3
KC
2
KC
70
0
74
0
0
ENDBLK
5
12B7
330
1279
100
AcDbEntity
8
0
100
AcDbBlockEnd
0
BLOCK
5
EC
330
127A
100
AcDbEntity
8
0
100
AcDbBlockBegin
2
ct
70
0
71
0
10
0
20
0
30
0
3
ct
1

0
LWPOLYLINE
5
ED
330
127A
100
AcDbEntity
8
0
62
8
48
50
100
AcDbPolyline
90
2
43
0
38
0
10
0
20
6.69495074864426
10
0
20
0
0
HATCH
5
EE
330
127A
100
AcDbEntity
8
0
62
8
48
50
100
AcDbHatch
10
0.0
20
0.0
30
0
210
0
220
0
230
1
2
ANSI31
70
0
71
0
91
1
92
3
72
0
73
1
93
3
10
0
20
1.59695485755765
10
0
20
0
10
1.61201090892428
20
1.59695485755765
97
0
75
0
76
2
52
0
41
1.40625054179383
77
0
78
1
53
44.9999999999991
43
0
44
0
45
-3.15712217644681
46
3.15712217644689
79
0
98
1
10
0.0
20
0.0
1001
VDEXTRAPARAM
1071
12
1071
256
1071
256
1040
1.40625054179383
1000
ANSI31
1000

1040
0
1040
0
1071
-1023410176
1071
-1023410176
0
LWPOLYLINE
5
EF
330
127A
100
AcDbEntity
8
0
62
8
48
50
100
AcDbPolyline
90
3
43
0
38
0
10
0
20
0
10
1.61201090892428
20
1.59695485755765
10
0
20
1.59695485755765
0
LWPOLYLINE
5
F0
330
127A
100
AcDbEntity
8
0
62
8
48
50
100
AcDbPolyline
90
3
43
0
38
0
10
0
20
0
10
-1.61201090863324
20
1.59695485755765
10
0
20
1.59695485755765
0
LINE
5
F1
330
127A
100
AcDbEntity
8
0
62
8
48
50
100
AcDbLine
10
-1.59270489685877
20
3.14083388047947
30
0
11
11.4694707731542
21
3.14083388047947
31
0
0
LINE
5
F2
330
127A
100
AcDbEntity
8
0
62
8
48
50
100
AcDbLine
10
11.5612564812618
20
0.000000000005457
30
0
11
-1.63869572513795
21
0.000000000005457
31
0
0
ATTDEF
5
F3
330
127A
100
AcDbEntity
8
0
62
3
100
AcDbText
10
1.40956440934678
20
4.06827131170394
30
0
40
2
1
%%p0.000
41
0.75
7
vntimeh.shx
11
0
21
0
31
0
100
AcDbAttributeDefinition
3
CT
2
CT
70
0
74
0
0
HATCH
5
F4
330
127A
100
AcDbEntity
8
0
100
AcDbHatch
10
0.0
20
0.0
30
0
210
0
220
0
230
1
2
SOLID
70
1
71
0
91
1
92
3
72
0
73
1
93
3
10
-1.45519E-11
20
-0.000000000005457
10
-1.61201090861868
20
1.59695485755583
10
1.45519E-11
20
1.59695485755765
97
0
75
0
76
1
98
1
10
0.0
20
0.0
1001
VDEXTRAPARAM
1071
1
1071
256
1071
256
1040
1
1000
SOLID
1000

1040
0
1040
0
1071
-1023410176
1071
-1023410176
0
ENDBLK
5
12B8
330
127A
100
AcDbEntity
8
0
100
AcDbBlockEnd
0
BLOCK
5
F9
330
127B
100
AcDbEntity
8
0
100
AcDbBlockBegin
2
dx
70
0
71
0
10
0
20
0
30
0
3
dx
1

0
LINE
5
FA
330
127B
100
AcDbEntity
8
0
62
8
100
AcDbLine
10
0
20
0
30
0
11
0
21
7.94640945771243
31
0
0
LINE
5
FB
330
127B
100
AcDbEntity
8
0
62
8
100
AcDbLine
10
-2.58401127209072
20
1.96140292779091
30
0
11
3.1554107471311
21
7.03683211038878
31
0
0
LINE
5
FC
330
127B
100
AcDbEntity
8
0
62
8
100
AcDbLine
10
3.1554107471311
20
7.03683211038878
30
0
11
5.8479870618612
21
3.99199959806538
31
0
0
LINE
5
FD
330
127B
100
AcDbEntity
8
0
62
8
100
AcDbLine
10
5.8479870618612
20
3.99199959806538
30
0
11
2.06623645368381
21
6.07366422077757
31
0
0
HATCH
5
FE
330
127B
100
AcDbEntity
8
0
62
8
100
AcDbHatch
10
0.0
20
0.0
30
0
210
0
220
0
230
1
2
SOLID
70
1
71
0
91
1
92
3
72
0
73
1
93
3
10
-2.06623645369837
20
6.07366422078485
10
-3.1554107471311
20
7.03683211039424
10
-5.84798706190486
20
3.9919995980581
97
0
75
0
76
1
98
1
10
0.0
20
0.0
1001
VDEXTRAPARAM
1071
1
1071
256
1071
256
1040
1
1000
SOLID
1000

1040
0
1040
0
1071
-1023410176
1071
-1023410176
0
LINE
5
FF
330
127B
100
AcDbEntity
8
0
62
8
100
AcDbLine
10
2.58401127207617
20
1.96140292779091
30
0
11
-3.15541074714565
21
7.0368321103906
31
0
0
LINE
5
100
330
127B
100
AcDbEntity
8
0
62
8
100
AcDbLine
10
-3.15541074714565
20
7.0368321103906
30
0
11
-5.84798706187576
21
3.99199959806719
31
0
0
LINE
5
101
330
127B
100
AcDbEntity
8
0
62
8
100
AcDbLine
10
-5.84798706187576
20
3.99199959806719
30
0
11
-2.06623645371292
21
6.07366422077939
31
0
0
ENDBLK
5
12B9
330
127B
100
AcDbEntity
8
0
100
AcDbBlockEnd
0
BLOCK
5
104
330
127C
100
AcDbEntity
8
0
100
AcDbBlockBegin
2
ct1
70
0
71
0
10
0
20
0
30
0
3
ct1
1

0
CIRCLE
5
105
330
127C
100
AcDbEntity
8
1
100
AcDbCircle
10
0
20
0
30
0
40
5
0
LINE
5
106
330
127C
100
AcDbEntity
8
1
100
AcDbLine
10
5
20
0
30
0
11
-5
21
0
31
0
0
ATTDEF
5
107
330
127C
100
AcDbEntity
8
0
62
0
100
AcDbText
10
-4.70238095238095
20
-3.12231790623627
30
0
40
2.5
1
kc.00
72
4
7
.VnHelvetlnsH
11
0
21
-1.87231790623627
31
0
100
AcDbAttributeDefinition
3
KC
2
KC
70
0
74
2
0
ATTDEF
5
108
330
127C
100
AcDbEntity
8
0
62
0
100
AcDbText
10
-0.416666666666667
20
0.592482281761474
30
0
40
3.5
1
1
72
4
7
.VnHelvetlnsH
11
0
21
2.34248228176147
31
0
100
AcDbAttributeDefinition
3
TEN
2
TEN
70
0
74
2
0
ENDBLK
5
12BA
330
127C
100
AcDbEntity
8
0
100
AcDbBlockEnd
0
BLOCK
5
10B
330
127D
100
AcDbEntity
8
0
100
AcDbBlockBegin
2
ct2
70
0
71
0
10
0
20
0
30
0
3
ct2
1

0
CIRCLE
5
10C
330
127D
100
AcDbEntity
8
1
100
AcDbCircle
10
0
20
0
30
0
40
5
0
CIRCLE
5
10D
330
127D
100
AcDbEntity
8
8
100
AcDbCircle
10
0
20
0
30
0
40
5.8
0
LINE
5
10E
330
127D
100
AcDbEntity
8
1
100
AcDbLine
10
5
20
0
30
0
11
-5
21
0
31
0
0
ATTDEF
5
10F
330
127D
100
AcDbEntity
8
0
62
0
100
AcDbText
10
-0.416666666666667
20
0.592482281761474
30
0
40
3.5
1
1
72
4
7
.VnHelvetlnsH
11
0
21
2.34248228176147
31
0
100
AcDbAttributeDefinition
3
TEN
2
TEN
70
0
74
2
0
ATTDEF
5
110
330
127D
100
AcDbEntity
8
0
62
0
100
AcDbText
10
-4.70238095238095
20
-3.12231790623627
30
0
40
2.5
1
kc.00
72
4
7
.VnHelvetlnsH
11
0
21
-1.87231790623627
31
0
100
AcDbAttributeDefinition
3
KC
2
KC
70
0
74
2
0
ENDBLK
5
12BB
330
127D
100
AcDbEntity
8
0
100
AcDbBlockEnd
0
BLOCK
5
115
330
127E
100
AcDbEntity
8
0
100
AcDbBlockBegin
2
A3
70
0
71
0
10
0
20
0
30
0
3
A3
1

0
LWPOLYLINE
5
116
330
127E
100
AcDbEntity
8
Defpoints
370
-3
100
AcDbPolyline
90
4
70
1
43
0
38
0
10
0
20
0
10
420
20
0
10
420
20
297
10
0
20
297
1001
AcDbBlockRepETag
1070
1
1071
0
1005
116
0
LWPOLYLINE
5
117
330
127E
100
AcDbEntity
8
1
100
AcDbPolyline
90
4
70
1
43
0
38
0
10
25
20
285
10
408
20
285
10
408
20
12
10
25
20
12
1001
AcDbBlockRepETag
1070
1
1071
1
1005
117
0
LWPOLYLINE
5
118
330
127E
100
AcDbEntity
8
Defpoints
370
-2
100
AcDbPolyline
90
3
43
0
38
0
10
402.185516064666
20
11
10
409
20
11
10
409
20
17.8144839353335
1001
AcDbBlockRepETag
1070
1
1071
2
1005
118
0
LWPOLYLINE
5
119
330
127E
100
AcDbEntity
8
Defpoints
370
-2
100
AcDbPolyline
90
3
43
0
38
0
10
402.185516064666
20
286
10
409
20
286
10
409
20
279.185516064666
1001
AcDbBlockRepETag
1070
1
1071
3
1005
119
0
LWPOLYLINE
5
11A
330
127E
100
AcDbEntity
8
Defpoints
370
-2
100
AcDbPolyline
90
3
43
0
38
0
10
17.8144839353335
20
11
10
11
20
11
10
11
20
17.8144839353335
1001
AcDbBlockRepETag
1070
1
1071
4
1005
11A
0
LWPOLYLINE
5
11B
330
127E
100
AcDbEntity
8
Defpoints
370
-2
100
AcDbPolyline
90
3
43
0
38
0
10
17.8144839353335
20
286
10
11
20
286
10
11
20
279.185516064666
1001
AcDbBlockRepETag
1070
1
1071
5
1005
11B
0
TEXT
5
11C
330
127E
100
AcDbEntity
8
0
48
3
100
AcDbText
10
368.935122057097
20
277.527153800373
30
0
40
1.6198
1
NGµY
50
90
41
0.85
7
avanh
11
0
21
0
31
0
100
AcDbText
73
0
1001
AcDbBlockRepETag
1070
1
1071
6
1005
11C
0
TEXT
5
11D
330
127E
100
AcDbEntity
8
0
48
3
100
AcDbText
10
368.935122057097
20
199.361588896107
30
0
40
1.6198
1
lÇn söa
50
90
41
0.85
7
avanh
11
0
21
0
31
0
100
AcDbText
73
0
1001
AcDbBlockRepETag
1070
1
1071
7
1005
11D
0
TEXT
5
11E
330
127E
100
AcDbEntity
8
0
48
3
100
AcDbText
10
367.376924844575
20
180.042190432076
30
0
40
1.6198
1
CHñ §ÇU T¦ :
41
0.85
7
avanh
11
0
21
0
31
0
100
AcDbText
73
0
1001
AcDbBlockRepETag
1070
1
1071
8
1005
11E
0
TEXT
5
11F
330
127E
100
AcDbEntity
8
0
48
3
100
AcDbText
10
374.310098133285
20
190.86274118811
30
0
40
2.040948
1
x©y dùng trô së
72
1
7
avanh
11
386.895944133285
21
190.86274118811
31
0
100
AcDbText
73
0
1001
AcDbBlockRepETag
1070
1
1071
9
1005
11F
0
TEXT
5
120
330
127E
100
AcDbEntity
8
0
48
3
100
AcDbText
10
367.376924844575
20
194.994190432073
30
0
40
1.6198
1
Dù ¸N :
41
0.85
7
avanh
11
0
21
0
31
0
100
AcDbText
73
0
1001
AcDbBlockRepETag
1070
1
1071
10
1005
120
0
TEXT
5
121
330
127E
100
AcDbEntity
8
0
48
3
100
AcDbText
10
362.104671542251
20
156.807212270644
30
0
40
2.040948
1
ph¸t triÓn phÇn mÒm x©y dùng - RDSic
41
0.75
72
1
7
avanh
11
386.66893854225
21
156.807212270644
31
0
100
AcDbText
73
0
1001
AcDbBlockRepETag
1070
1
1071
12
1005
121
0
TEXT
5
122
330
127E
100
AcDbEntity
8
0
48
3
100
AcDbText
10
369.76946444998
20
160.306928901911
30
0
40
2.040948
1
trung t©m nghiªn cøu
72
1
7
avanh
11
386.60728544998
21
160.306928901911
31
0
100
AcDbText
73
0
1001
AcDbBlockRepETag
1070
1
1071
13
1005
122
0
TEXT
5
123
330
127E
100
AcDbEntity
8
3
48
3
100
AcDbText
10
367.376924844575
20
164.510962930079
30
0
40
1.6198
1
T¦ VÊN ThÈm tra :
41
0.85
7
avanh
11
0
21
0
31
0
100
AcDbText
73
0
1001
AcDbBlockRepETag
1070
1
1071
14
1005
123
0
TEXT
5
124
330
127E
100
AcDbEntity
8
3
48
3
100
AcDbText
10
371.415918788987
20
127.936751173664
30
0
40
1.6198
1
GI¸M §èC : TS. trÇn anh b×nh
41
0.85
7
avanh
11
0
21
0
31
0
100
AcDbText
73
0
1001
AcDbBlockRepETag
1070
1
1071
15
1005
124
0
TEXT
5
125
330
127E
100
AcDbEntity
8
3
48
3
100
AcDbText
10
370.546578343892
20
109.246751173661
30
0
40
1.6198
1
CHñ TR× thiÕt kÕ : d­¬ng diÖp thóy
41
0.85
7
avanh
11
0
21
0
31
0
100
AcDbText
73
0
1001
AcDbBlockRepETag
1070
1
1071
16
1005
125
0
LINE
5
126
330
127E
100
AcDbEntity
8
8
48
3
100
AcDbLine
10
396.150000000023
20
198.031000000003
30
0
11
396.150000000023
21
285
31
0
1001
AcDbBlockRepETag
1070
1
1071
17
1005
126
0
LINE
5
127
330
127E
100
AcDbEntity
8
8
48
3
100
AcDbLine
10
402.380000000005
20
198.031000000003
30
0
11
402.380000000005
21
285
31
0
1001
AcDbBlockRepETag
1070
1
1071
18
1005
127
0
LINE
5
128
330
127E
100
AcDbEntity
8
8
48
3
100
AcDbLine
10
383.689999999944
20
198.031000000003
30
0
11
383.689999999944
21
285
31
0
1001
AcDbBlockRepETag
1070
1
1071
19
1005
128
0
LINE
5
129
330
127E
100
AcDbEntity
8
8
48
3
100
AcDbLine
10
389.920000000042
20
198.031000000003
30
0
11
389.920000000042
21
285
31
0
1001
AcDbBlockRepETag
1070
1
1071
20
1005
129
0
LINE
5
12A
330
127E
100
AcDbEntity
8
8
48
3
100
AcDbLine
10
377.459999999963
20
198.031000000003
30
0
11
377.459999999963
21
285
31
0
1001
AcDbBlockRepETag
1070
1
1071
21
1005
12A
0
LINE
5
12B
330
127E
100
AcDbEntity
8
8
48
3
100
AcDbLine
10
371.229999999981
20
198.031000000003
30
0
11
371.229999999981
21
285
31
0
1001
AcDbBlockRepETag
1070
1
1071
22
1005
12B
0
TEXT
5
12C
330
127E
100
AcDbEntity
8
0
48
3
100
AcDbText
10
368.935122057097
20
231.044329241602
30
0
40
1.6198
1
NéI DUNG SöA CH÷A
50
90
41
0.85
7
avanh
11
0
21
0
31
0
100
AcDbText
73
0
1001
AcDbBlockRepETag
1070
1
1071
23
1005
12C
0
TEXT
5
12D
330
127E
100
AcDbEntity
8
3
48
3
100
AcDbText
10
374.182114033921
20
71.8667511736639
30
0
40
1.6198
1
KIÓM :  ph¹m v¨n hoµn
41
0.85
7
avanh
11
0
21
0
31
0
100
AcDbText
73
0
1001
AcDbBlockRepETag
1070
1
1071
24
1005
12D
0
TEXT
5
12E
330
127E
100
AcDbEntity
8
3
48
3
100
AcDbText
10
371.720524690408
20
90.5567511736663
30
0
40
1.6198
1
THIÕT KÕ, VÏ :  TrÇn v¨n qu©n
41
0.85
7
avanh
11
0
21
0
31
0
100
AcDbText
73
0
1001
AcDbBlockRepETag
1070
1
1071
25
1005
12E
0
TEXT
5
12F
330
127E
100
AcDbEntity
8
3
48
3
100
AcDbText
10
381.392097420292
20
29.0317298460504
30
0
40
1.6198
1
Ký HIÖU B¶N VÏ
41
0.85
7
avanh
11
0
21
0
31
0
100
AcDbText
73
0
1001
AcDbBlockRepETag
1070
1
1071
26
1005
12F
0
TEXT
5
130
330
127E
100
AcDbEntity
8
3
48
3
100
AcDbText
10
368.037294500158
20
29.0317298460504
30
0
40
1.6198
1
H.S.T.K.S.B.
41
0.85
7
avanh
11
0
21
0
31
0
100
AcDbText
73
0
1001
AcDbBlockRepETag
1070
1
1071
27
1005
130
0
TEXT
5
131
330
127E
100
AcDbEntity
8
3
48
3
100
AcDbText
10
367.376924844575
20
47.5697511736653
30
0
40
1.6198
1
T£N B¶N VÏ :
41
0.85
7
avanh
11
0
21
0
31
0
100
AcDbText
73
0
1001
AcDbBlockRepETag
1070
1
1071
28
1005
131
0
TEXT
5
132
330
127E
100
AcDbEntity
8
0
48
3
100
AcDbText
10
367.376924844575
20
52.4015735536304
30
0
40
1.6198
1
H¹NG MôC :
41
0.85
7
avanh
11
0
21
0
31
0
100
AcDbText
73
0
1001
AcDbBlockRepETag
1070
1
1071
29
1005
132
0
TEXT
5
133
330
127E
100
AcDbEntity
8
3
48
3
100
AcDbText
10
398.269396002172
20
16.7134076013826
30
0
40
1.6198
1
MS.
41
0.85
7
avanh
11
0
21
0
31
0
100
AcDbText
73
0
1001
AcDbBlockRepETag
1070
1
1071
30
1005
133
0
LINE
5
134
330
127E
100
AcDbEntity
8
0
48
3
100
AcDbLine
10
397.39599999995
20
19.4760000000024
30
0
11
397.39599999995
21
12
31
0
1001
AcDbBlockRepETag
1070
1
1071
31
1005
134
0
LINE
5
135
330
127E
100
AcDbEntity
8
0
48
3
100
AcDbLine
10
365
20
15.7379999999975
30
0
11
397.39599999995
21
15.7379999999975
31
0
1001
AcDbBlockRepETag
1070
1
1071
32
1005
135
0
TEXT
5
136
330
127E
100
AcDbEntity
8
3
48
3
100
AcDbText
10
366.709080407047
20
16.7134076013826
30
0
40
1.6198
1
PH¸T HµNH :
41
0.85
7
avanh
11
0
21
0
31
0
100
AcDbText
73
0
1001
AcDbBlockRepETag
1070
1
1071
33
1005
136
0
LINE
5
137
330
127E
100
AcDbEntity
8
0
48
3
100
AcDbLine
10
379.952000000048
20
31.6900000000023
30
0
11
379.952000000048
21
19.4760000000024
31
0
1001
AcDbBlockRepETag
1070
1
1071
34
1005
137
0
TEXT
5
138
330
127E
100
AcDbEntity
8
0
48
3
100
AcDbText
10
367.355584321544
20
21.7243071930934
30
0
40
4.0495
1
Q.
7
avanh
11
0
21
0
31
0
100
AcDbText
73
0
1001
AcDbBlockRepETag
1070
1
1071
35
1005
138
0
LINE
5
139
330
127E
100
AcDbEntity
8
1
100
AcDbLine
10
365
20
12
30
0
11
365
21
285
31
0
1001
AcDbBlockRepETag
1070
1
1071
36
1005
139
0
LINE
5
13A
330
127E
100
AcDbEntity
8
0
48
3
100
AcDbLine
10
365
20
27.9519999999975
30
0
11
408
21
27.9519999999975
31
0
1001
AcDbBlockRepETag
1070
1
1071
37
1005
13A
0
LINE
5
13B
330
127E
100
AcDbEntity
8
0
48
3
100
AcDbLine
10
365
20
19.4760000000024
30
0
11
408
21
19.4760000000024
31
0
1001
AcDbBlockRepETag
1070
1
1071
38
1005
13B
0
LINE
5
13C
330
127E
100
AcDbEntity
8
0
48
3
100
AcDbLine
10
365
20
50.3799999999974
30
0
11
408
21
50.3799999999974
31
0
1001
AcDbBlockRepETag
1070
1
1071
39
1005
13C
0
LINE
5
13D
330
127E
100
AcDbEntity
8
0
48
3
100
AcDbLine
10
365
20
55.987000000001
30
0
11
408
21
55.987000000001
31
0
1001
AcDbBlockRepETag
1070
1
1071
40
1005
13D
0
LINE
5
13E
330
127E
100
AcDbEntity
8
0
48
3
100
AcDbLine
10
365
20
31.6900000000023
30
0
11
408
21
31.6900000000023
31
0
1001
AcDbBlockRepETag
1070
1
1071
41
1005
13E
0
TEXT
5
13F
330
127E
100
AcDbEntity
8
0
48
3
100
AcDbText
10
366.34942696034
20
131.988135240186
30
0
40
1.6198
1
§T: 84.36288522 - FAX : 84.3 6288522  E.mail: rdsic@nuce.edu.vn
41
0.616325275678675
72
5
7
avanh
11
406.999576537288
21
131.988135240186
31
0
100
AcDbText
73
0
1001
AcDbBlockRepETag
1070
1
1071
42
1005
13F
0
TEXT
5
140
330
127E
100
AcDbEntity
8
0
48
3
100
AcDbText
10
367.290493473296
20
135.080635196427
30
0
40
1.6198
1
Phßng 423 - nhµ a1 - ®¹i häc x©y dùng
41
0.85
7
avanh
11
0
21
0
31
0
100
AcDbText
73
0
1001
AcDbBlockRepETag
1070
1
1071
43
1005
140
0
LINE
5
141
330
127E
100
AcDbEntity
8
0
48
3
100
AcDbLine
10
365
20
74.676999999996
30
0
11
408
21
74.676999999996
31
0
1001
AcDbBlockRepETag
1070
1
1071
44
1005
141
0
LINE
5
142
330
127E
100
AcDbEntity
8
0
48
3
100
AcDbLine
10
365
20
112.057000000001
30
0
11
408
21
112.057000000001
31
0
1001
AcDbBlockRepETag
1070
1
1071
45
1005
142
0
LINE
5
143
330
127E
100
AcDbEntity
8
0
48
3
100
AcDbLine
10
365
20
93.3669999999984
30
0
11
408
21
93.3669999999984
31
0
1001
AcDbBlockRepETag
1070
1
1071
46
1005
143
0
LINE
5
144
330
127E
100
AcDbEntity
8
0
48
3
100
AcDbLine
10
365
20
130.746999999996
30
0
11
408
21
130.746999999996
31
0
1001
AcDbBlockRepETag
1070
1
1071
47
1005
144
0
LINE
5
145
330
127E
100
AcDbEntity
8
0
48
3
100
AcDbLine
10
365
20
183.078999999998
30
0
11
408
21
183.078999999998
31
0
1001
AcDbBlockRepETag
1070
1
1071
48
1005
145
0
LINE
5
146
330
127E
100
AcDbEntity
8
0
48
3
100
AcDbLine
10
365
20
168.127
30
0
11
408
21
168.127
31
0
1001
AcDbBlockRepETag
1070
1
1071
49
1005
146
0
LINE
5
147
330
127E
100
AcDbEntity
8
0
48
3
100
AcDbLine
10
365
20
198.031000000003
30
0
11
408
21
198.031000000003
31
0
1001
AcDbBlockRepETag
1070
1
1071
50
1005
147
0
LINE
5
148
330
127E
100
AcDbEntity
8
8
48
3
100
AcDbLine
10
365
20
207.999000000003
30
0
11
408
21
207.999000000003
31
0
1001
AcDbBlockRepETag
1070
1
1071
51
1005
148
0
LINE
5
149
330
127E
100
AcDbEntity
8
8
48
3
100
AcDbLine
10
365
20
275.031999999999
30
0
11
408
21
275.031999999999
31
0
1001
AcDbBlockRepETag
1070
1
1071
52
1005
149
0
TEXT
5
14A
330
127E
100
AcDbEntity
8
0
48
3
100
AcDbText
10
364.54560944998
20
174.042886115298
30
0
40
2.040948
1
Tæng côc viii - Bé c«ng an
72
1
7
avanh
11
386.60728544998
21
174.042886115298
31
0
100
AcDbText
73
0
1001
AcDbBlockRepETag
1070
1
1071
53
1005
14A
0
TEXT
5
14B
330
127E
100
AcDbEntity
8
0
48
3
100
AcDbText
10
383.396100879065
20
21.7243071930934
30
0
40
4.0495
1
Kc -
7
avanh
11
0
21
0
31
0
100
AcDbText
73
0
1001
AcDbBlockRepETag
1070
1
1071
54
1005
14B
0
TEXT
5
14C
330
127E
100
AcDbEntity
8
0
48
3
100
AcDbText
10
366.875216133285
20
186.594832277907
30
0
40
2.040948
1
th­êng trùc tæng côc Viii
72
1
7
avanh
11
386.895944133285
21
186.594832277907
31
0
100
AcDbText
73
0
1001
AcDbBlockRepETag
1070
1
1071
55
1005
14C
0
ENDBLK
5
12BC
330
127E
100
AcDbEntity
8
0
100
AcDbBlockEnd
0
BLOCK
5
14F
330
127F
100
AcDbEntity
8
0
100
AcDbBlockBegin
2
mct
70
0
71
0
10
0
20
0
30
0
3
mct
1

0
LINE
5
150
330
127F
100
AcDbEntity
8
0
62
1
48
2
100
AcDbLine
10
3.30998838215601
20
1.82740682814983
30
0
11
-3.30998838230153
21
1.82740682814983
31
0
0
LWPOLYLINE
5
11D3
330
127F
100
AcDbEntity
8
0
62
1
100
AcDbPolyline
90
3
43
0
38
0
10
0
20
0
10
3.21428571428571
20
1.32852229984927
10
-3.21428571428571
20
1.32852229984927
1001
VDEXTRAPARAM
1071
1
1071
1
1071
256
1040
1
1000

1000

1040
0
1040
0
1071
-1023410175
1071
-1023410176
0
HATCH
5
12BD
330
127F
100
AcDbEntity
8
0
62
1
100
AcDbHatch
10
0.0
20
0.0
30
0
210
0
220
0
230
1
2
SOLID
70
1
71
0
91
1
92
2
72
0
73
1
93
3
10
0
20
0
10
3.21428571428571
20
1.32852229984927
10
-3.21428571428571
20
1.32852229984927
97
0
75
0
76
1
98
1
10
0.0
20
0.0
1001
VDEXTRAPARAM
1071
1
1071
1
1071
256
1040
1
1000

1000

1040
0
1040
0
1071
-1023410175
1071
-1023410176
1001
VD_TEMPHATCH
1000
VD_TEMPHATCH
0
LWPOLYLINE
5
151
330
127F
100
AcDbEntity
8
0
62
1
48
2
100
AcDbPolyline
90
2
43
3.75
38
0
10
0
20
0
10
0
20
1.32852229984928
1001
VDEXTRAPARAM
1071
0
1071
256
1071
256
1040
1
1000

1000

1040
3.75
1040
0
1071
-1023410176
1071
-1023410176
0
ATTDEF
5
152
330
127F
100
AcDbEntity
8
0
100
AcDbText
10
-4.89686460823577
20
2.98026133162966
30
0
40
5
1
mc
72
4
7
.VnHelvetlnsH
11
0.103135391764226
21
5.48026133162966
31
0
100
AcDbAttributeDefinition
3
1
2
1
70
0
74
2
0
ENDBLK
5
12BE
330
127F
100
AcDbEntity
8
0
100
AcDbBlockEnd
0
BLOCK
5
155
330
1280
100
AcDbEntity
8
0
100
AcDbBlockBegin
2
ct1a1
70
0
71
0
10
0
20
0
30
0
3
ct1a1
1

0
CIRCLE
5
156
330
1280
100
AcDbEntity
8
1
100
AcDbCircle
10
0
20
0
30
0
40
7.5
0
LINE
5
157
330
1280
100
AcDbEntity
8
1
100
AcDbLine
10
7.5
20
0
30
0
11
-7.5
21
0
31
0
0
ATTDEF
5
158
330
1280
100
AcDbEntity
8
0
62
0
100
AcDbText
10
-6.58333333333333
20
-4.55847685935441
30
0
40
3.5
1
kc.00
72
4
7
.VnHelvetlnsH
11
0
21
-2.80847685935441
31
0
100
AcDbAttributeDefinition
3
KC
2
KC
70
0
74
2
0
ATTDEF
5
159
330
1280
100
AcDbEntity
8
0
62
0
100
AcDbText
10
-0.595238095238095
20
1.01372342264221
30
0
40
5
1
1
72
4
7
.VnHelvetlnsH
11
0
21
3.51372342264221
31
0
100
AcDbAttributeDefinition
3
TEN
2
TEN
70
0
74
2
0
ENDBLK
5
12BF
330
1280
100
AcDbEntity
8
0
100
AcDbBlockEnd
0
BLOCK
5
15C
330
1281
100
AcDbEntity
8
0
100
AcDbBlockBegin
2
ct2a1
70
0
71
0
10
0
20
0
30
0
3
ct2a1
1

0
CIRCLE
5
15D
330
1281
100
AcDbEntity
8
1
100
AcDbCircle
10
0
20
0
30
0
40
7.5
0
CIRCLE
5
15E
330
1281
100
AcDbEntity
8
8
100
AcDbCircle
10
0
20
0
30
0
40
8.7
0
LINE
5
15F
330
1281
100
AcDbEntity
8
1
100
AcDbLine
10
7.5
20
0
30
0
11
-7.5
21
0
31
0
0
ATTDEF
5
160
330
1281
100
AcDbEntity
8
0
62
0
100
AcDbText
10
-6.58333333333333
20
-4.55847685935441
30
0
40
3.5
1
kc.00
72
4
7
.VnHelvetlnsH
11
0
21
-2.80847685935441
31
0
100
AcDbAttributeDefinition
3
KC
2
KC
70
0
74
2
0
ATTDEF
5
161
330
1281
100
AcDbEntity
8
0
62
0
100
AcDbText
10
-0.595238095238095
20
1.01372342264221
30
0
40
5
1
1
72
4
7
.VnHelvetlnsH
11
0
21
3.51372342264221
31
0
100
AcDbAttributeDefinition
3
TEN
2
TEN
70
0
74
2
0
ENDBLK
5
12C0
330
1281
100
AcDbEntity
8
0
100
AcDbBlockEnd
0
BLOCK
5
6F5
330
1282
100
AcDbEntity
8
0
100
AcDbBlockBegin
2
VD_ANONYM_6EB
70
0
71
0
10
0
20
0
30
0
3
VD_ANONYM_6EB
1

0
LINE
5
6F7
330
1282
100
AcDbEntity
8
Dim
62
8
370
-2
100
AcDbLine
10
444.551441947197
20
413.924663379121
30
0
11
444.551441947197
21
409.079565814378
31
0
0
LINE
5
6F8
330
1282
100
AcDbEntity
8
Dim
62
8
370
-2
100
AcDbLine
10
469.581071517047
20
413.924663379121
30
0
11
469.581071517047
21
409.079565814378
31
0
0
LINE
5
6F9
330
1282
100
AcDbEntity
8
Dim
62
8
370
-2
100
AcDbLine
10
443.551441947197
20
410.079565814378
30
0
11
470.581071517047
21
410.079565814378
31
0
0
INSERT
5
6FA
330
1282
100
AcDbEntity
8
Dim
62
8
370
-2
100
AcDbBlockReference
2
_ArchTick
10
444.551441947197
20
410.079565814378
30
0
41
1.2
42
1.2
43
1.2
50
180
0
INSERT
5
6FB
330
1282
100
AcDbEntity
8
Dim
62
8
370
-2
100
AcDbBlockReference
2
_ArchTick
10
469.581071517047
20
410.079565814378
30
0
41
1.2
42
1.2
43
1.2
0
TEXT
5
11D4
330
1282
100
AcDbEntity
8
Dim
62
3
100
AcDbText
10
457.066256732123
20
411.579565814378
30
0
40
2
1
25
72
1
7
romans.shx
11
457.066256732123
21
409.979565814378
31
0
100
AcDbText
73
1
0
POINT
5
6FD
330
1282
100
AcDbEntity
8
Defpoints
62
0
100
AcDbPoint
10
444.551441947197
20
413.924663379121
30
0
0
POINT
5
6FE
330
1282
100
AcDbEntity
8
Defpoints
62
0
100
AcDbPoint
10
469.581071517047
20
413.924663379121
30
0
0
POINT
5
6FF
330
1282
100
AcDbEntity
8
Defpoints
62
0
100
AcDbPoint
10
469.581071517047
20
410.079565814378
30
0
0
ENDBLK
5
12C1
330
1282
100
AcDbEntity
8
0
100
AcDbBlockEnd
0
BLOCK
5
892
330
1283
100
AcDbEntity
8
0
100
AcDbBlockBegin
2
NUTVACH
70
0
71
0
10
0
20
0
30
0
3
NUTVACH
1

0
LINE
5
893
330
1283
100
AcDbEntity
8
0
100
AcDbLine
10
7.1E-15
20
-94.4980929452392
30
0
11
7.1E-15
21
94.4980929452392
31
0
0
LINE
5
894
330
1283
100
AcDbEntity
8
0
100
AcDbLine
10
-94.4980929452392
20
0
30
0
11
94.4980929452392
21
0
31
0
0
LWPOLYLINE
5
895
330
1283
100
AcDbEntity
8
0
100
AcDbPolyline
90
2
43
50
38
0
10
-53.0330085889911
20
-53.0330085889911
10
53.0330085889911
20
53.0330085889911
1001
VDEXTRAPARAM
1071
0
1071
256
1071
256
1040
1
1000

1000

1040
50
1040
0
1071
-1023410176
1071
-1023410176
0
ENDBLK
5
12C2
330
1283
100
AcDbEntity
8
0
100
AcDbBlockEnd
0
BLOCK
5
898
330
1284
100
AcDbEntity
8
0
100
AcDbBlockBegin
2
TK_2
70
0
71
0
10
0
20
0
30
0
3
TK_2
1

0
ATTDEF
5
899
330
1284
100
AcDbEntity
8
TEXT
100
AcDbText
10
504.761904761904
20
-625
30
0
40
250
1
0
41
0.8
72
4
7
ROMANS
11
600
21
-500
31
0
100
AcDbAttributeDefinition
3
SH
2
SH
70
0
74
2
0
ATTDEF
5
89A
330
1284
100
AcDbEntity
8
TEXT
100
AcDbText
10
6904.7619047619
20
-625
30
0
40
250
1
0
41
0.8
72
4
7
ROMANS
11
7000
21
-500
31
0
100
AcDbAttributeDefinition
3
DK
2
DK
70
0
74
2
0
ATTDEF
5
89B
330
1284
100
AcDbEntity
8
TEXT
100
AcDbText
10
9238.09523809524
20
-625
30
0
40
250
1
0
41
0.8
72
2
7
ROMANS
11
9400
21
-500
31
0
100
AcDbAttributeDefinition
3
L
2
L
70
0
74
2
0
ATTDEF
5
89C
330
1284
100
AcDbEntity
8
TEXT
100
AcDbText
10
10604.7619047619
20
-625
30
0
40
250
1
0
41
0.8
72
4
7
ROMANS
11
10700
21
-500
31
0
100
AcDbAttributeDefinition
3
SL
2
SL
70
0
74
2
0
ATTDEF
5
89D
330
1284
100
AcDbEntity
8
TEXT
100
AcDbText
10
12404.7619047619
20
-625
30
0
40
250
1
0
41
0.8
72
4
7
ROMANS
11
12500
21
-500
31
0
100
AcDbAttributeDefinition
3
SCK
2
SCK
70
0
74
2
0
ATTDEF
5
89E
330
1284
100
AcDbEntity
8
TEXT
100
AcDbText
10
15238.0952380952
20
-625
30
0
40
250
1
0
41
0.8
72
2
7
ROMANS
11
15400
21
-500
31
0
100
AcDbAttributeDefinition
3
LA
2
LA
70
0
74
2
0
ATTDEF
5
89F
330
1284
100
AcDbEntity
8
TEXT
100
AcDbText
10
17638.0952380952
20
-625
30
0
40
250
1
0
41
0.8
72
2
7
ROMANS
11
17800
21
-500
31
0
100
AcDbAttributeDefinition
3
KL
2
KL
70
0
74
2
0
ATTDEF
5
8A0
330
1284
100
AcDbEntity
8
TEXT
100
AcDbText
10
3623.80952380952
20
-700
30
0
40
200
1
0
41
0.8
72
1
7
ROMANS
11
3700
21
-700
31
0
100
AcDbAttributeDefinition
3
L1
2
L1
70
0
74
0
0
ATTDEF
5
8A1
330
1284
100
AcDbEntity
8
TEXT
100
AcDbText
10
5084.7619047619
20
-600
30
0
40
200
1
0
41
0.8
72
1
7
ROMANS
11
5160.95238095238
21
-600
31
0
100
AcDbAttributeDefinition
3
LNEO
2
LNEO
70
0
74
0
0
ATTDEF
5
8A2
330
1284
100
AcDbEntity
8
TEXT
100
AcDbText
10
2223.80952380952
20
-600
30
0
40
200
1
0
41
0.8
72
1
7
ROMANS
11
2300
21
-600
31
0
100
AcDbAttributeDefinition
3
LNEO
2
LNEO
70
0
74
0
0
LWPOLYLINE
5
8A3
330
1284
100
AcDbEntity
8
THEP
100
AcDbPolyline
90
6
43
0
38
0
10
2450
20
-700
10
2250
20
-700
42
1
10
2250
20
-800
10
5150
20
-800
42
1
10
5150
20
-700
10
4950
20
-700
0
ENDBLK
5
12C3
330
1284
100
AcDbEntity
8
0
100
AcDbBlockEnd
0
BLOCK
5
8A6
330
1285
100
AcDbEntity
8
0
100
AcDbBlockBegin
2
TK_1
70
0
71
0
10
0
20
0
30
0
3
TK_1
1

0
ATTDEF
5
8A7
330
1285
100
AcDbEntity
8
TEXT
100
AcDbText
10
504.761904761904
20
-625
30
0
40
250
1
0
41
0.8
72
4
7
ROMANS
11
600
21
-500
31
0
100
AcDbAttributeDefinition
3
SH
2
SH
70
0
74
2
0
ATTDEF
5
8A8
330
1285
100
AcDbEntity
8
TEXT
100
AcDbText
10
6904.7619047619
20
-625
30
0
40
250
1
0
41
0.8
72
4
7
ROMANS
11
7000
21
-500
31
0
100
AcDbAttributeDefinition
3
DK
2
DK
70
0
74
2
0
ATTDEF
5
8A9
330
1285
100
AcDbEntity
8
TEXT
100
AcDbText
10
9238.09523809524
20
-625
30
0
40
250
1
0
41
0.8
72
2
7
ROMANS
11
9400
21
-500
31
0
100
AcDbAttributeDefinition
3
L
2
L
70
0
74
2
0
ATTDEF
5
8AA
330
1285
100
AcDbEntity
8
TEXT
100
AcDbText
10
10604.7619047619
20
-625
30
0
40
250
1
0
41
0.8
72
4
7
ROMANS
11
10700
21
-500
31
0
100
AcDbAttributeDefinition
3
SL
2
SL
70
0
74
2
0
ATTDEF
5
8AB
330
1285
100
AcDbEntity
8
TEXT
100
AcDbText
10
12404.7619047619
20
-625
30
0
40
250
1
0
41
0.8
72
4
7
ROMANS
11
12500
21
-500
31
0
100
AcDbAttributeDefinition
3
SCK
2
SCK
70
0
74
2
0
ATTDEF
5
8AC
330
1285
100
AcDbEntity
8
TEXT
100
AcDbText
10
15238.0952380952
20
-625
30
0
40
250
1
0
41
0.8
72
2
7
ROMANS
11
15400
21
-500
31
0
100
AcDbAttributeDefinition
3
LA
2
LA
70
0
74
2
0
ATTDEF
5
8AD
330
1285
100
AcDbEntity
8
TEXT
100
AcDbText
10
17638.0952380952
20
-625
30
0
40
250
1
0
41
0.8
72
2
7
ROMANS
11
17800
21
-500
31
0
100
AcDbAttributeDefinition
3
KL
2
KL
70
0
74
2
0
ATTDEF
5
8AE
330
1285
100
AcDbEntity
8
TEXT
100
AcDbText
10
3623.80952380952
20
-700
30
0
40
200
1
0
41
0.8
72
1
7
ROMANS
11
3700
21
-700
31
0
100
AcDbAttributeDefinition
3
L1
2
L1
70
0
74
0
0
LWPOLYLINE
5
8AF
330
1285
100
AcDbEntity
8
THEP
100
AcDbPolyline
90
2
43
0
38
0
10
2250
20
-800
10
5150
20
-800
0
ENDBLK
5
12C4
330
1285
100
AcDbEntity
8
0
100
AcDbBlockEnd
0
BLOCK
5
8B2
330
1286
100
AcDbEntity
8
0
100
AcDbBlockBegin
2
TK_3
70
0
71
0
10
0
20
0
30
0
3
TK_3
1

0
ATTDEF
5
8B3
330
1286
100
AcDbEntity
8
TEXT
100
AcDbText
10
512.761904761904
20
-625
30
0
40
250
1
0
41
0.8
72
4
7
ROMANS
11
608
21
-500
31
0
100
AcDbAttributeDefinition
3
SH
2
SH
70
0
74
2
0
ATTDEF
5
8B4
330
1286
100
AcDbEntity
8
TEXT
100
AcDbText
10
6904.7619047619
20
-625
30
0
40
250
1
0
41
0.8
72
4
7
ROMANS
11
7000
21
-500
31
0
100
AcDbAttributeDefinition
3
DK
2
DK
70
0
74
2
0
ATTDEF
5
8B5
330
1286
100
AcDbEntity
8
TEXT
100
AcDbText
10
9238.09523809524
20
-625
30
0
40
250
1
0
41
0.8
72
2
7
ROMANS
11
9400
21
-500
31
0
100
AcDbAttributeDefinition
3
L
2
L
70
0
74
2
0
ATTDEF
5
8B6
330
1286
100
AcDbEntity
8
TEXT
100
AcDbText
10
10604.7619047619
20
-625
30
0
40
250
1
0
41
0.8
72
4
7
ROMANS
11
10700
21
-500
31
0
100
AcDbAttributeDefinition
3
SL
2
SL
70
0
74
2
0
ATTDEF
5
8B7
330
1286
100
AcDbEntity
8
TEXT
100
AcDbText
10
12404.7619047619
20
-625
30
0
40
250
1
0
41
0.8
72
4
7
ROMANS
11
12500
21
-500
31
0
100
AcDbAttributeDefinition
3
SCK
2
SCK
70
0
74
2
0
ATTDEF
5
8B8
330
1286
100
AcDbEntity
8
TEXT
100
AcDbText
10
15238.0952380952
20
-625
30
0
40
250
1
0
41
0.8
72
2
7
ROMANS
11
15400
21
-500
31
0
100
AcDbAttributeDefinition
3
LA
2
LA
70
0
74
2
0
ATTDEF
5
8B9
330
1286
100
AcDbEntity
8
TEXT
100
AcDbText
10
17638.0952380952
20
-625
30
0
40
250
1
0
41
0.8
72
2
7
ROMANS
11
17800
21
-500
31
0
100
AcDbAttributeDefinition
3
KL
2
KL
70
0
74
2
0
ATTDEF
5
8BA
330
1286
100
AcDbEntity
8
TEXT
100
AcDbText
10
2020.47619047619
20
-600
30
0
40
200
1
0
41
0.8
72
2
7
ROMANS
11
2150
21
-500
31
0
100
AcDbAttributeDefinition
3
L1
2
L1
70
0
74
2
0
ATTDEF
5
8BB
330
1286
100
AcDbEntity
8
TEXT
100
AcDbText
10
3623.80952380952
20
-500
30
0
40
200
1
0
41
0.8
72
1
7
ROMANS
11
3700
21
-300
31
0
100
AcDbAttributeDefinition
3
L2
2
L2
70
0
74
3
0
ATTDEF
5
8BC
330
1286
100
AcDbEntity
8
TEXT
100
AcDbText
10
5250
20
-600
30
0
40
200
1
0
41
0.8
7
ROMANS
11
5250
21
-500
31
0
100
AcDbAttributeDefinition
3
L3
2
L3
70
0
74
2
0
LWPOLYLINE
5
8BD
330
1286
100
AcDbEntity
8
THEP
100
AcDbPolyline
90
2
43
0
38
0
10
2250
20
-200
10
5150
20
-200
0
LINE
5
8BE
330
1286
100
AcDbEntity
8
THEP
100
AcDbLine
10
5150
20
-200
30
0
11
5150
21
-800
31
0
0
LINE
5
8BF
330
1286
100
AcDbEntity
8
THEP
100
AcDbLine
10
2250
20
-200
30
0
11
2250
21
-800
31
0
0
ENDBLK
5
12C5
330
1286
100
AcDbEntity
8
0
100
AcDbBlockEnd
0
BLOCK
5
8C2
330
1287
100
AcDbEntity
8
0
100
AcDbBlockBegin
2
TK_5
70
0
71
0
10
0
20
0
30
0
3
TK_5
1

0
ATTDEF
5
8C3
330
1287
100
AcDbEntity
8
TEXT
100
AcDbText
10
512.761904761904
20
-625
30
0
40
250
1
0
41
0.8
72
4
7
ROMANS
11
608
21
-500
31
0
100
AcDbAttributeDefinition
3
SH
2
SH
70
0
74
2
0
ATTDEF
5
8C4
330
1287
100
AcDbEntity
8
TEXT
100
AcDbText
10
6904.7619047619
20
-625
30
0
40
250
1
0
41
0.8
72
4
7
ROMANS
11
7000
21
-500
31
0
100
AcDbAttributeDefinition
3
DK
2
DK
70
0
74
2
0
ATTDEF
5
8C5
330
1287
100
AcDbEntity
8
TEXT
100
AcDbText
10
9238.09523809524
20
-625
30
0
40
250
1
0
41
0.8
72
2
7
ROMANS
11
9400
21
-500
31
0
100
AcDbAttributeDefinition
3
L
2
L
70
0
74
2
0
ATTDEF
5
8C6
330
1287
100
AcDbEntity
8
TEXT
100
AcDbText
10
10604.7619047619
20
-625
30
0
40
250
1
0
41
0.8
72
4
7
ROMANS
11
10700
21
-500
31
0
100
AcDbAttributeDefinition
3
SL
2
SL
70
0
74
2
0
ATTDEF
5
8C7
330
1287
100
AcDbEntity
8
TEXT
100
AcDbText
10
12404.7619047619
20
-625
30
0
40
250
1
0
41
0.8
72
4
7
ROMANS
11
12500
21
-500
31
0
100
AcDbAttributeDefinition
3
SCK
2
SCK
70
0
74
2
0
ATTDEF
5
8C8
330
1287
100
AcDbEntity
8
TEXT
100
AcDbText
10
15238.0952380952
20
-625
30
0
40
250
1
0
41
0.8
72
2
7
ROMANS
11
15400
21
-500
31
0
100
AcDbAttributeDefinition
3
LA
2
LA
70
0
74
2
0
ATTDEF
5
8C9
330
1287
100
AcDbEntity
8
TEXT
100
AcDbText
10
17638.0952380952
20
-625
30
0
40
250
1
0
41
0.8
72
2
7
ROMANS
11
17800
21
-500
31
0
100
AcDbAttributeDefinition
3
KL
2
KL
70
0
74
2
0
ATTDEF
5
8CA
330
1287
100
AcDbEntity
8
TEXT
100
AcDbText
10
3623.80952380952
20
-700
30
0
40
200
1
0
41
0.8
72
1
7
ROMANS
11
3700
21
-700
31
0
100
AcDbAttributeDefinition
3
L1
2
L1
70
0
74
0
0
ATTDEF
5
8CB
330
1287
100
AcDbEntity
8
TEXT
100
AcDbText
10
4950
20
-700
30
0
40
200
1
0
41
0.8
7
ROMANS
11
4950
21
-600
31
0
100
AcDbAttributeDefinition
3
L2
2
L2
70
0
74
2
0
ATTDEF
5
8CC
330
1287
100
AcDbEntity
8
TEXT
100
AcDbText
10
2223.80952380952
20
-300
30
0
40
200
1
0
41
0.8
72
1
7
ROMANS
11
2300
21
-300
31
0
100
AcDbAttributeDefinition
3
LNEO
2
LNEO
70
0
74
0
0
LINE
5
8CD
330
1287
100
AcDbEntity
8
THEP
100
AcDbLine
10
2250
20
-400
30
0
11
4850
21
-400
31
0
0
LINE
5
8CE
330
1287
100
AcDbEntity
8
THEP
100
AcDbLine
10
4850
20
-800
30
0
11
4850
21
-400
31
0
0
LINE
5
8CF
330
1287
100
AcDbEntity
8
THEP
100
AcDbLine
10
2550
20
-800
30
0
11
4850
21
-800
31
0
0
LINE
5
8D0
330
1287
100
AcDbEntity
8
THEP
100
AcDbLine
10
2550
20
-200
30
0
11
2550
21
-800
31
0
0
ENDBLK
5
12C6
330
1287
100
AcDbEntity
8
0
100
AcDbBlockEnd
0
BLOCK
5
8D3
330
1288
100
AcDbEntity
8
0
100
AcDbBlockBegin
2
TK_7
70
0
71
0
10
0
20
0
30
0
3
TK_7
1

0
ATTDEF
5
8D4
330
1288
100
AcDbEntity
8
TEXT
100
AcDbText
10
504.761904761904
20
-625
30
0
40
250
1
0
41
0.8
72
4
7
ROMANS
11
600
21
-500
31
0
100
AcDbAttributeDefinition
3
SH
2
SH
70
0
74
2
0
ATTDEF
5
8D5
330
1288
100
AcDbEntity
8
TEXT
100
AcDbText
10
6904.7619047619
20
-625
30
0
40
250
1
0
41
0.8
72
4
7
ROMANS
11
7000
21
-500
31
0
100
AcDbAttributeDefinition
3
DK
2
DK
70
0
74
2
0
ATTDEF
5
8D6
330
1288
100
AcDbEntity
8
TEXT
100
AcDbText
10
9238.09523809524
20
-625
30
0
40
250
1
0
41
0.8
72
2
7
ROMANS
11
9400
21
-500
31
0
100
AcDbAttributeDefinition
3
L
2
L
70
0
74
2
0
ATTDEF
5
8D7
330
1288
100
AcDbEntity
8
TEXT
100
AcDbText
10
10604.7619047619
20
-625
30
0
40
250
1
0
41
0.8
72
4
7
ROMANS
11
10700
21
-500
31
0
100
AcDbAttributeDefinition
3
SL
2
SL
70
0
74
2
0
ATTDEF
5
8D8
330
1288
100
AcDbEntity
8
TEXT
100
AcDbText
10
12404.7619047619
20
-625
30
0
40
250
1
0
41
0.8
72
4
7
ROMANS
11
12500
21
-500
31
0
100
AcDbAttributeDefinition
3
SCK
2
SCK
70
0
74
2
0
ATTDEF
5
8D9
330
1288
100
AcDbEntity
8
TEXT
100
AcDbText
10
15238.0952380952
20
-625
30
0
40
250
1
0
41
0.8
72
2
7
ROMANS
11
15400
21
-500
31
0
100
AcDbAttributeDefinition
3
LA
2
LA
70
0
74
2
0
ATTDEF
5
8DA
330
1288
100
AcDbEntity
8
TEXT
100
AcDbText
10
17638.0952380952
20
-625
30
0
40
250
1
0
41
0.8
72
2
7
ROMANS
11
17800
21
-500
31
0
100
AcDbAttributeDefinition
3
KL
2
KL
70
0
74
2
0
ATTDEF
5
8DB
330
1288
100
AcDbEntity
8
TEXT
100
AcDbText
10
2020.47619047619
20
-600
30
0
40
200
1
0
41
0.8
72
2
7
ROMANS
11
2150
21
-500
31
0
100
AcDbAttributeDefinition
3
L1
2
L1
70
0
74
2
0
ATTDEF
5
8DC
330
1288
100
AcDbEntity
8
TEXT
100
AcDbText
10
3623.80952380952
20
-500
30
0
40
200
1
0
41
0.8
72
1
7
ROMANS
11
3700
21
-300
31
0
100
AcDbAttributeDefinition
3
L2
2
L2
70
0
74
3
0
LWPOLYLINE
5
8DD
330
1288
100
AcDbEntity
8
THEP
100
AcDbPolyline
90
2
43
0
38
0
10
2250
20
-200
10
5150
20
-200
0
LINE
5
8DE
330
1288
100
AcDbEntity
8
THEP
100
AcDbLine
10
2250
20
-200
30
0
11
2250
21
-800
31
0
0
ENDBLK
5
12C7
330
1288
100
AcDbEntity
8
0
100
AcDbBlockEnd
0
BLOCK
5
8E1
330
1289
100
AcDbEntity
8
0
100
AcDbBlockBegin
2
TK_8
70
0
71
0
10
0
20
0
30
0
3
TK_8
1

0
ATTDEF
5
8E2
330
1289
100
AcDbEntity
8
TEXT
100
AcDbText
10
504.761904761904
20
-625
30
0
40
250
1
0
41
0.8
72
4
7
ROMANS
11
600
21
-500
31
0
100
AcDbAttributeDefinition
3
SH
2
SH
70
0
74
2
0
ATTDEF
5
8E3
330
1289
100
AcDbEntity
8
TEXT
100
AcDbText
10
6904.7619047619
20
-625
30
0
40
250
1
0
41
0.8
72
4
7
ROMANS
11
7000
21
-500
31
0
100
AcDbAttributeDefinition
3
DK
2
DK
70
0
74
2
0
ATTDEF
5
8E4
330
1289
100
AcDbEntity
8
TEXT
100
AcDbText
10
9238.09523809524
20
-625
30
0
40
250
1
0
41
0.8
72
2
7
ROMANS
11
9400
21
-500
31
0
100
AcDbAttributeDefinition
3
L
2
L
70
0
74
2
0
ATTDEF
5
8E5
330
1289
100
AcDbEntity
8
TEXT
100
AcDbText
10
10604.7619047619
20
-625
30
0
40
250
1
0
41
0.8
72
4
7
ROMANS
11
10700
21
-500
31
0
100
AcDbAttributeDefinition
3
SL
2
SL
70
0
74
2
0
ATTDEF
5
8E6
330
1289
100
AcDbEntity
8
TEXT
100
AcDbText
10
12404.7619047619
20
-625
30
0
40
250
1
0
41
0.8
72
4
7
ROMANS
11
12500
21
-500
31
0
100
AcDbAttributeDefinition
3
SCK
2
SCK
70
0
74
2
0
ATTDEF
5
8E7
330
1289
100
AcDbEntity
8
TEXT
100
AcDbText
10
15238.0952380952
20
-625
30
0
40
250
1
0
41
0.8
72
2
7
ROMANS
11
15400
21
-500
31
0
100
AcDbAttributeDefinition
3
LA
2
LA
70
0
74
2
0
ATTDEF
5
8E8
330
1289
100
AcDbEntity
8
TEXT
100
AcDbText
10
17638.0952380952
20
-625
30
0
40
250
1
0
41
0.8
72
2
7
ROMANS
11
17800
21
-500
31
0
100
AcDbAttributeDefinition
3
KL
2
KL
70
0
74
2
0
ATTDEF
5
8E9
330
1289
100
AcDbEntity
8
TEXT
100
AcDbText
10
2020.47619047619
20
-600
30
0
40
200
1
0
41
0.8
72
2
7
ROMANS
11
2150
21
-500
31
0
100
AcDbAttributeDefinition
3
L1
2
L1
70
0
74
2
0
ATTDEF
5
8EA
330
1289
100
AcDbEntity
8
TEXT
100
AcDbText
10
3623.80952380952
20
-500
30
0
40
200
1
0
41
0.8
72
1
7
ROMANS
11
3700
21
-300
31
0
100
AcDbAttributeDefinition
3
L2
2
L2
70
0
74
3
0
ATTDEF
5
8EB
330
1289
100
AcDbEntity
8
TEXT
100
AcDbText
10
2450
20
-800
30
0
40
200
1
0
41
0.8
7
ROMANS
11
2450
21
-700
31
0
100
AcDbAttributeDefinition
3
LNEO
2
LNEO
70
0
74
2
0
ATTDEF
5
8EC
330
1289
100
AcDbEntity
8
TEXT
100
AcDbText
10
5084.7619047619
20
-600
30
0
40
200
1
0
41
0.8
72
1
7
ROMANS
11
5160.95238095238
21
-400
31
0
100
AcDbAttributeDefinition
3
LNEO
2
LNEO
70
0
74
3
0
LWPOLYLINE
5
8ED
330
1289
100
AcDbEntity
8
THEP
100
AcDbPolyline
90
2
43
0
38
0
10
2250
20
-200
10
5150
20
-200
0
LWPOLYLINE
5
8EE
330
1289
100
AcDbEntity
8
THEP
100
AcDbPolyline
90
3
43
0
38
0
10
5150
20
-200
42
-1
10
5150
20
-300
10
4950
20
-300
0
LINE
5
8EF
330
1289
100
AcDbEntity
8
THEP
100
AcDbLine
10
2250
20
-200
30
0
11
2250
21
-800
31
0
0
LWPOLYLINE
5
8F0
330
1289
100
AcDbEntity
8
THEP
100
AcDbPolyline
90
3
43
0
38
0
10
2250
20
-800
42
1
10
2350
20
-800
10
2350
20
-600
0
ENDBLK
5
12C8
330
1289
100
AcDbEntity
8
0
100
AcDbBlockEnd
0
BLOCK
5
E96
330
128A
100
AcDbEntity
8
0
100
AcDbBlockBegin
2
label_truc
70
0
71
0
10
0
20
0
30
0
3
label_truc
1

0
CIRCLE
5
E98
330
128A
100
AcDbEntity
8
7
100
AcDbCircle
10
0
20
-301.5
30
0
40
301.5
0
ATTDEF
5
E99
330
128A
100
AcDbEntity
8
7
100
AcDbText
10
-104.5
20
-426
30
0
40
250
1

7
ARIAL
11
0
21
0
31
0
100
AcDbAttributeDefinition
3
N
2
N
70
0
74
0
1001
AcDbAttr
1070
0
1070
1
0
ENDBLK
5
12C9
330
128A
100
AcDbEntity
8
0
100
AcDbBlockEnd
0
BLOCK
5
EFD
330
128B
100
AcDbEntity
8
0
100
AcDbBlockBegin
2
label_truc1
70
0
71
0
10
0
20
0
30
0
3
label_truc1
1

0
CIRCLE
5
EFF
330
128B
100
AcDbEntity
8
2
100
AcDbCircle
10
0
20
-512
30
0
40
301.5
0
LINE
5
F00
330
128B
100
AcDbEntity
8
7
100
AcDbLine
10
0
20
-1024
30
0
11
0
21
-813.5
31
0
0
LINE
5
F01
330
128B
100
AcDbEntity
8
7
100
AcDbLine
10
0
20
-210.5
30
0
11
0
21
0
31
0
0
LINE
5
F02
330
128B
100
AcDbEntity
8
7
100
AcDbLine
10
301.5
20
-512
30
0
11
512
21
-512
31
0
0
LINE
5
F03
330
128B
100
AcDbEntity
8
7
100
AcDbLine
10
-301.5
20
-512
30
0
11
-512
21
-512
31
0
0
ATTDEF
5
F04
330
128B
100
AcDbEntity
8
TEXT
100
AcDbText
10
-104.5
20
-636.5
30
0
40
250
1

7
ARIAL
11
0
21
0
31
0
100
AcDbAttributeDefinition
3
N
2
N
70
0
74
0
1001
AcDbAttr
1070
0
1070
1
0
ENDBLK
5
12CA
330
128B
100
AcDbEntity
8
0
100
AcDbBlockEnd
0
BLOCK
5
F74
330
128C
100
AcDbEntity
8
0
100
AcDbBlockBegin
2
label_trucngang
70
0
71
0
10
0
20
0
30
0
3
label_trucngang
1

0
CIRCLE
5
F76
330
128C
100
AcDbEntity
8
2
100
AcDbCircle
10
-512
20
0
30
0
40
301.5
0
LINE
5
F77
330
128C
100
AcDbEntity
8
2
100
AcDbLine
10
-512
20
-512
30
0
11
-512
21
-301.5
31
0
0
LINE
5
F78
330
128C
100
AcDbEntity
8
2
100
AcDbLine
10
-512
20
301.5
30
0
11
-512
21
512
31
0
0
LINE
5
F79
330
128C
100
AcDbEntity
8
2
100
AcDbLine
10
-210.5
20
0
30
0
11
0
21
0
31
0
0
LINE
5
F7A
330
128C
100
AcDbEntity
8
2
100
AcDbLine
10
-813.5
20
0
30
0
11
-1024
21
0
31
0
0
CIRCLE
5
F7B
330
128C
100
AcDbEntity
8
8
100
AcDbCircle
10
-512
20
0
30
0
40
353.5
0
ATTDEF
5
F7C
330
128C
100
AcDbEntity
8
TEXT
100
AcDbText
10
-616.5
20
-124.5
30
0
40
250
1

7
ARIAL
11
0
21
0
31
0
100
AcDbAttributeDefinition
3
N
2
N
70
0
74
0
1001
AcDbAttr
1070
0
1070
1
0
ENDBLK
5
12CB
330
128C
100
AcDbEntity
8
0
100
AcDbBlockEnd
0
BLOCK
5
F8C
330
128D
100
AcDbEntity
8
0
100
AcDbBlockBegin
2
label_trucdung
70
0
71
0
10
0
20
0
30
0
3
label_trucdung
1

0
CIRCLE
5
F8E
330
128D
100
AcDbEntity
8
2
100
AcDbCircle
10
0
20
-512
30
0
40
301.5
0
LINE
5
F8F
330
128D
100
AcDbEntity
8
2
100
AcDbLine
10
0
20
-1024
30
0
11
0
21
-813.5
31
0
0
LINE
5
F90
330
128D
100
AcDbEntity
8
2
100
AcDbLine
10
0
20
-210.5
30
0
11
0
21
0
31
0
0
LINE
5
F91
330
128D
100
AcDbEntity
8
2
100
AcDbLine
10
301.5
20
-512
30
0
11
512
21
-512
31
0
0
LINE
5
F92
330
128D
100
AcDbEntity
8
2
100
AcDbLine
10
-301.5
20
-512
30
0
11
-512
21
-512
31
0
0
CIRCLE
5
F93
330
128D
100
AcDbEntity
8
8
100
AcDbCircle
10
0
20
-512
30
0
40
353.5
0
ATTDEF
5
F94
330
128D
100
AcDbEntity
8
TEXT
100
AcDbText
10
-104.5
20
-636.5
30
0
40
250
1

7
ARIAL
11
0
21
0
31
0
100
AcDbAttributeDefinition
3
N
2
N
70
0
74
0
1001
AcDbAttr
1070
0
1070
1
0
ENDBLK
5
12CC
330
128D
100
AcDbEntity
8
0
100
AcDbBlockEnd
0
BLOCK
5
FED
330
128E
100
AcDbEntity
8
0
100
AcDbBlockBegin
2
VD_ANONYM_FE1
70
0
71
0
10
0
20
0
30
0
3
VD_ANONYM_FE1
1

0
LINE
5
FE2
330
128E
100
AcDbEntity
8
8
62
8
370
-2
100
AcDbLine
10
2.5
20
5
30
0
11
2.5
21
-38
31
0
0
LINE
5
FE3
330
128E
100
AcDbEntity
8
8
62
8
370
-2
100
AcDbLine
10
6.5
20
5
30
0
11
6.5
21
-38
31
0
0
LINE
5
FE4
330
128E
100
AcDbEntity
8
8
62
8
370
-2
100
AcDbLine
10
2.5
20
2
30
0
11
-45.5
21
2
31
0
0
LINE
5
FE5
330
128E
100
AcDbEntity
8
8
62
8
370
-2
100
AcDbLine
10
6.5
20
2
30
0
11
185.357142857143
21
2
31
0
0
LINE
5
FE6
330
128E
100
AcDbEntity
8
8
62
8
370
-2
100
AcDbLine
10
2.5
20
2
30
0
11
6.5
21
2
31
0
0
INSERT
5
FE7
330
128E
100
AcDbEntity
8
8
62
8
370
-2
100
AcDbBlockReference
2
_ArchTick
10
2.5
20
2
30
0
41
48
42
48
43
48
0
INSERT
5
FE8
330
128E
100
AcDbEntity
8
8
62
8
370
-2
100
AcDbBlockReference
2
_ArchTick
10
6.5
20
2
30
0
41
48
42
48
43
48
50
180.000000000002
0
TEXT
5
11D5
330
128E
100
AcDbEntity
8
8
62
3
100
AcDbText
10
143.928571428571
20
62
30
0
40
80
1
4
72
1
7
romans.shx
11
143.928571428571
21
-2
31
0
100
AcDbText
73
1
0
POINT
5
FEA
330
128E
100
AcDbEntity
8
Defpoints
62
0
100
AcDbPoint
10
2.5
20
5
30
0
0
POINT
5
FEB
330
128E
100
AcDbEntity
8
Defpoints
62
0
100
AcDbPoint
10
6.5
20
5
30
0
0
POINT
5
FEC
330
128E
100
AcDbEntity
8
Defpoints
62
0
100
AcDbPoint
10
6.5
20
2
30
0
0
ENDBLK
5
12CD
330
128E
100
AcDbEntity
8
0
100
AcDbBlockEnd
0
BLOCK
5
FFA
330
128F
100
AcDbEntity
8
0
100
AcDbBlockBegin
2
VD_ANONYM_FF0
70
0
71
0
10
0
20
0
30
0
3
VD_ANONYM_FF0
1

0
LINE
5
1012
330
128F
100
AcDbEntity
8
8
62
8
370
-2
100
AcDbLine
10
-202
20
84
30
0
11
-202
21
-96.5
31
0
0
LINE
5
1013
330
128F
100
AcDbEntity
8
8
62
8
370
-2
100
AcDbLine
10
320
20
84
30
0
11
320
21
-96.5
31
0
0
LINE
5
1014
330
128F
100
AcDbEntity
8
8
62
8
370
-2
100
AcDbLine
10
-262
20
-36.5
30
0
11
320
21
-36.5
31
0
0
LINE
5
1015
330
128F
100
AcDbEntity
8
8
62
8
370
-2
100
AcDbLine
10
320
20
-36.5
30
0
11
7394.85714285714
21
-36.5
31
0
0
INSERT
5
1016
330
128F
100
AcDbEntity
8
8
62
8
370
-2
100
AcDbBlockReference
2
_ArchTick
10
-202
20
-36.5
30
0
41
71.9999999999999
42
71.9999999999999
43
71.9999999999999
50
180.000000000002
0
INSERT
5
1017
330
128F
100
AcDbEntity
8
8
62
8
370
-2
100
AcDbBlockReference
2
_ArchTick
10
320
20
-36.5
30
0
41
71.9999999999999
42
71.9999999999999
43
71.9999999999999
0
TEXT
5
11D6
330
128F
100
AcDbEntity
8
8
62
3
100
AcDbText
10
3893.42857142857
20
1793.5
30
0
40
3600
1
522
72
1
7
romans.shx
11
3893.42857142857
21
-1086.5
31
0
100
AcDbText
73
1
0
POINT
5
1019
330
128F
100
AcDbEntity
8
Defpoints
62
0
100
AcDbPoint
10
-202
20
84
30
0
0
POINT
5
101A
330
128F
100
AcDbEntity
8
Defpoints
62
0
100
AcDbPoint
10
320
20
84
30
0
0
POINT
5
101B
330
128F
100
AcDbEntity
8
Defpoints
62
0
100
AcDbPoint
10
320
20
-36.5
30
0
0
ENDBLK
5
12CE
330
128F
100
AcDbEntity
8
0
100
AcDbBlockEnd
0
BLOCK
5
1010
330
1290
100
AcDbEntity
8
0
100
AcDbBlockBegin
2
VD_ANONYM_1006
70
0
71
0
10
0
20
0
30
0
3
VD_ANONYM_1006
1

0
LINE
5
101C
330
1290
100
AcDbEntity
8
8
62
8
370
-2
100
AcDbLine
10
-211
20
169.5
30
0
11
-211
21
244.5
31
0
0
LINE
5
101D
330
1290
100
AcDbEntity
8
8
62
8
370
-2
100
AcDbLine
10
327.5
20
169.5
30
0
11
327.5
21
244.5
31
0
0
LINE
5
101E
330
1290
100
AcDbEntity
8
8
62
8
370
-2
100
AcDbLine
10
-271
20
184.5
30
0
11
327.5
21
184.5
31
0
0
LINE
5
101F
330
1290
100
AcDbEntity
8
8
62
8
370
-2
100
AcDbLine
10
327.5
20
184.5
30
0
11
7273.78571428571
21
184.5
31
0
0
INSERT
5
1020
330
1290
100
AcDbEntity
8
8
62
8
370
-2
100
AcDbBlockReference
2
_ArchTick
10
-211
20
184.5
30
0
41
71.9999999999999
42
71.9999999999999
43
71.9999999999999
50
180.000000000002
0
INSERT
5
1021
330
1290
100
AcDbEntity
8
8
62
8
370
-2
100
AcDbBlockReference
2
_ArchTick
10
327.5
20
184.5
30
0
41
71.9999999999999
42
71.9999999999999
43
71.9999999999999
0
TEXT
5
11D7
330
1290
100
AcDbEntity
8
8
62
3
100
AcDbText
10
3836.64285714286
20
2014.5
30
0
40
3600
1
539
72
1
7
romans.shx
11
3836.64285714286
21
-865.5
31
0
100
AcDbText
73
1
0
POINT
5
1023
330
1290
100
AcDbEntity
8
Defpoints
62
0
100
AcDbPoint
10
-211
20
169.5
30
0
0
POINT
5
1024
330
1290
100
AcDbEntity
8
Defpoints
62
0
100
AcDbPoint
10
327.5
20
169.5
30
0
0
POINT
5
1025
330
1290
100
AcDbEntity
8
Defpoints
62
0
100
AcDbPoint
10
327.5
20
184.5
30
0
0
ENDBLK
5
12CF
330
1290
100
AcDbEntity
8
0
100
AcDbBlockEnd
0
BLOCK
5
105A
330
1291
100
AcDbEntity
8
0
100
AcDbBlockBegin
2
NodeRight
70
0
71
0
10
0
20
0
30
0
3
NodeRight
1

0
ARC
5
105C
330
1291
100
AcDbEntity
8
Steel
100
AcDbCircle
10
0
20
32.5
30
0
40
32.5
100
AcDbArc
50
270
51
0
0
LINE
5
105D
330
1291
100
AcDbEntity
8
Steel
100
AcDbLine
10
32.5
20
32.5
30
0
11
32.5
21
32.5
31
0
0
ARC
5
105E
330
1291
100
AcDbEntity
8
Steel
100
AcDbCircle
10
0
20
32.5
30
0
40
32.5
100
AcDbArc
50
0
51
90
0
LINE
5
105F
330
1291
100
AcDbEntity
8
Steel
100
AcDbLine
10
0
20
65
30
0
11
-80
21
65
31
0
0
ENDBLK
5
12D0
330
1291
100
AcDbEntity
8
0
100
AcDbBlockEnd
0
BLOCK
5
1062
330
1292
100
AcDbEntity
8
0
100
AcDbBlockBegin
2
NodeLeft
70
0
71
0
10
0
20
0
30
0
3
NodeLeft
1

0
LINE
5
1064
330
1292
100
AcDbEntity
8
Steel
100
AcDbLine
10
80
20
65
30
0
11
7.1E-15
21
65
31
0
0
ARC
5
1065
330
1292
100
AcDbEntity
8
Steel
100
AcDbCircle
10
7.1E-15
20
32.5
30
0
40
32.5
100
AcDbArc
50
90
51
180
0
LINE
5
1066
330
1292
100
AcDbEntity
8
Steel
100
AcDbLine
10
-32.5
20
32.5
30
0
11
-32.5
21
32.5
31
0
0
ARC
5
1067
330
1292
100
AcDbEntity
8
Steel
100
AcDbCircle
10
7.1E-15
20
32.5
30
0
40
32.5
100
AcDbArc
50
180
51
270
0
ENDBLK
5
12D1
330
1292
100
AcDbEntity
8
0
100
AcDbBlockEnd
0
BLOCK
5
1084
330
1293
100
AcDbEntity
8
0
100
AcDbBlockBegin
2
NodeLeft1
70
0
71
0
10
0
20
0
30
0
3
NodeLeft1
1

0
LINE
5
1086
330
1293
100
AcDbEntity
8
THEP
100
AcDbLine
10
80
20
65
30
0
11
0
21
65
31
0
0
ARC
5
1087
330
1293
100
AcDbEntity
8
THEP
100
AcDbCircle
10
0
20
32.5
30
0
40
32.5
100
AcDbArc
50
90
51
180
0
LINE
5
1088
330
1293
100
AcDbEntity
8
THEP
100
AcDbLine
10
-32.5
20
32.5
30
0
11
-32.5
21
32.5
31
0
0
ARC
5
1089
330
1293
100
AcDbEntity
8
THEP
100
AcDbCircle
10
0
20
32.5
30
0
40
32.5
100
AcDbArc
50
180
51
270
0
ENDBLK
5
12D2
330
1293
100
AcDbEntity
8
0
100
AcDbBlockEnd
0
BLOCK
5
108C
330
1294
100
AcDbEntity
8
0
100
AcDbBlockBegin
2
NodeRight1
70
0
71
0
10
0
20
0
30
0
3
NodeRight1
1

0
ARC
5
108E
330
1294
100
AcDbEntity
8
THEP
100
AcDbCircle
10
0
20
32.5
30
0
40
32.5
100
AcDbArc
50
270
51
0
0
LINE
5
108F
330
1294
100
AcDbEntity
8
THEP
100
AcDbLine
10
32.5
20
32.5
30
0
11
32.5
21
32.5
31
0
0
ARC
5
1090
330
1294
100
AcDbEntity
8
THEP
100
AcDbCircle
10
0
20
32.5
30
0
40
32.5
100
AcDbArc
50
0
51
90
0
LINE
5
1091
330
1294
100
AcDbEntity
8
THEP
100
AcDbLine
10
0
20
65
30
0
11
-80
21
65
31
0
0
ENDBLK
5
12D3
330
1294
100
AcDbEntity
8
0
100
AcDbBlockEnd
0
BLOCK
5
10A8
330
1295
100
AcDbEntity
8
0
100
AcDbBlockBegin
2
NodeTop
70
0
71
0
10
0
20
0
30
0
3
NodeTop
1

0
ARC
5
10AA
330
1295
100
AcDbEntity
8
THEP
100
AcDbCircle
10
32.5
20
80
30
0
40
32.5
100
AcDbArc
50
0
51
90
0
LINE
5
10AB
330
1295
100
AcDbEntity
8
THEP
100
AcDbLine
10
32.5
20
112.5
30
0
11
32.5
21
112.5
31
0
0
ARC
5
10AC
330
1295
100
AcDbEntity
8
THEP
100
AcDbCircle
10
32.5
20
80
30
0
40
32.5
100
AcDbArc
50
90
51
180
0
LINE
5
10AD
330
1295
100
AcDbEntity
8
THEP
100
AcDbLine
10
0
20
80
30
0
11
0
21
0
31
0
0
ENDBLK
5
12D4
330
1295
100
AcDbEntity
8
0
100
AcDbBlockEnd
0
BLOCK
5
10B0
330
1296
100
AcDbEntity
8
0
100
AcDbBlockBegin
2
NodeBottom
70
0
71
0
10
0
20
0
30
0
3
NodeBottom
1

0
LINE
5
10B2
330
1296
100
AcDbEntity
8
THEP
100
AcDbLine
10
0
20
0
30
0
11
0
21
-80
31
0
0
ARC
5
10B3
330
1296
100
AcDbEntity
8
THEP
100
AcDbCircle
10
32.5
20
-80
30
0
40
32.5
100
AcDbArc
50
180
51
270
0
LINE
5
10B4
330
1296
100
AcDbEntity
8
THEP
100
AcDbLine
10
32.5
20
-112.5
30
0
11
32.5
21
-112.5
31
0
0
ARC
5
10B5
330
1296
100
AcDbEntity
8
THEP
100
AcDbCircle
10
32.5
20
-80
30
0
40
32.5
100
AcDbArc
50
270
51
0
0
ENDBLK
5
12D5
330
1296
100
AcDbEntity
8
0
100
AcDbBlockEnd
0
BLOCK
5
10C6
330
1297
100
AcDbEntity
8
0
100
AcDbBlockBegin
2
NodeBottom1
70
0
71
0
10
0
20
0
30
0
3
NodeBottom1
1

0
ARC
5
10C8
330
1297
100
AcDbEntity
8
THEP
100
AcDbCircle
10
32.5
20
0
30
0
40
32.5
100
AcDbArc
50
0
51
90
0
LINE
5
10C9
330
1297
100
AcDbEntity
8
THEP
100
AcDbLine
10
32.5
20
32.5
30
0
11
32.5
21
32.5
31
0
0
ARC
5
10CA
330
1297
100
AcDbEntity
8
THEP
100
AcDbCircle
10
32.5
20
0
30
0
40
32.5
100
AcDbArc
50
90
51
180
0
ENDBLK
5
12D6
330
1297
100
AcDbEntity
8
0
100
AcDbBlockEnd
0
BLOCK
5
10CD
330
1298
100
AcDbEntity
8
0
100
AcDbBlockBegin
2
NodeTop1
70
0
71
0
10
0
20
0
30
0
3
NodeTop1
1

0
ARC
5
10CF
330
1298
100
AcDbEntity
8
THEP
100
AcDbCircle
10
32.5
20
0
30
0
40
32.5
100
AcDbArc
50
180
51
270
0
LINE
5
10D0
330
1298
100
AcDbEntity
8
THEP
100
AcDbLine
10
32.5
20
-32.5
30
0
11
32.5
21
-32.5
31
0
0
ARC
5
10D1
330
1298
100
AcDbEntity
8
THEP
100
AcDbCircle
10
32.5
20
0
30
0
40
32.5
100
AcDbArc
50
270
51
0
0
ENDBLK
5
12D7
330
1298
100
AcDbEntity
8
0
100
AcDbBlockEnd
0
BLOCK
5
10DE
330
1299
100
AcDbEntity
8
0
100
AcDbBlockBegin
2
VD_ANONYM_10DD
70
0
71
0
10
0
20
0
30
0
3
VD_ANONYM_10DD
1

0
LINE
5
10E0
330
1299
100
AcDbEntity
8
8
62
8
370
-2
100
AcDbLine
10
6943.5
20
2616
30
0
11
6943.5
21
2789
31
0
0
LINE
5
10E1
330
1299
100
AcDbEntity
8
8
62
8
370
-2
100
AcDbLine
10
7198.5
20
2616
30
0
11
7198.5
21
2789
31
0
0
LINE
5
10E2
330
1299
100
AcDbEntity
8
8
62
8
370
-2
100
AcDbLine
10
6943.5
20
2639
30
0
11
6763.5
21
2639
31
0
0
LINE
5
10E3
330
1299
100
AcDbEntity
8
8
62
8
370
-2
100
AcDbLine
10
7198.5
20
2639
30
0
11
7378.5
21
2639
31
0
0
LINE
5
10E4
330
1299
100
AcDbEntity
8
8
62
8
370
-2
100
AcDbLine
10
6943.5
20
2639
30
0
11
7198.5
21
2639
31
0
0
INSERT
5
10E5
330
1299
100
AcDbEntity
8
8
62
8
370
-2
100
AcDbBlockReference
2
_ArchTick
10
6943.5
20
2639
30
0
41
180
42
180
43
180
0
INSERT
5
10E6
330
1299
100
AcDbEntity
8
8
62
8
370
-2
100
AcDbBlockReference
2
_ArchTick
10
7198.5
20
2639
30
0
41
180
42
180
43
180
50
180
0
TEXT
5
11D8
330
1299
100
AcDbEntity
8
8
62
1
100
AcDbText
10
7071
20
2901.5
30
0
40
375
1
255
72
1
7
romans.shx
11
7071
21
2601.5
31
0
100
AcDbText
73
1
0
POINT
5
10E8
330
1299
100
AcDbEntity
8
Defpoints
62
0
100
AcDbPoint
10
6943.5
20
2616
30
0
0
POINT
5
10E9
330
1299
100
AcDbEntity
8
Defpoints
62
0
100
AcDbPoint
10
7198.5
20
2616
30
0
0
POINT
5
10EA
330
1299
100
AcDbEntity
8
Defpoints
62
0
100
AcDbPoint
10
7198.5
20
2639
30
0
0
ENDBLK
5
12D8
330
1299
100
AcDbEntity
8
0
100
AcDbBlockEnd
0
BLOCK
5
113A
330
129A
100
AcDbEntity
8
0
100
AcDbBlockBegin
2
Chuthichthep
70
0
71
0
10
0
20
0
30
0
3
Chuthichthep
1

0
LINE
5
113B
330
129A
100
AcDbEntity
8
3
100
AcDbLine
10
0
20
0
30
0
11
115.010340668847
21
161.334594355461
31
0
0
LINE
5
113C
330
129A
100
AcDbEntity
8
3
100
AcDbLine
10
115.010340668847
20
161.334594355461
30
0
11
513.17962379787
21
161.334594355461
31
0
0
ATTDEF
5
113D
330
129A
100
AcDbEntity
8
3
62
4
100
AcDbText
10
151.661675725056
20
209.241861334149
30
0
40
125
1

7
romans.shx
11
0
21
0
31
0
100
AcDbAttributeDefinition
3
D25
2
D25
70
0
74
0
1001
AcDbAttr
1070
0
1070
1
0
ENDBLK
5
12D9
330
129A
100
AcDbEntity
8
0
100
AcDbBlockEnd
0
BLOCK
5
115B
330
129B
100
AcDbEntity
8
0
100
AcDbBlockBegin
2
thep_doc_cot
70
0
71
0
10
0
20
0
30
0
3
thep_doc_cot
1

0
LINE
5
115D
330
129B
100
AcDbEntity
8
3
100
AcDbLine
10
0
20
0
30
0
11
115.010340668847
21
161.334594355461
31
0
0
LINE
5
115E
330
129B
100
AcDbEntity
8
3
100
AcDbLine
10
115.010340668847
20
161.334594355461
30
0
11
513.17962379787
21
161.334594355461
31
0
0
ATTDEF
5
115F
330
129B
100
AcDbEntity
8
3
62
4
100
AcDbText
10
151.661675725056
20
209.241861334149
30
0
40
125
1

7
romans.shx
11
0
21
0
31
0
100
AcDbAttributeDefinition
3
D25
2
D25
70
0
74
0
1001
AcDbAttr
1070
0
1070
1
0
ENDBLK
5
12DA
330
129B
100
AcDbEntity
8
0
100
AcDbBlockEnd
0
BLOCK
5
1213
330
129C
100
AcDbEntity
8
0
100
AcDbBlockBegin
2
VD_ANONYM_D1
70
0
71
0
10
0
20
0
30
0
3
VD_ANONYM_D1
1

0
TEXT
5
120C
330
129C
100
AcDbEntity
8
3
62
1
100
AcDbText
10
0
20
0
30
0
40
125
1
1200
50
89.9999999999998
72
1
7
romans.shx
11
-1225
21
-5.20166402355818E-12
31
0
100
AcDbText
73
0
0
LINE
5
120D
330
129C
100
AcDbEntity
8
3
62
8
100
AcDbLine
10
-1200
20
-600.000000000005
30
0
11
-1200
21
-190.934065934071
31
0
0
LINE
5
120E
330
129C
100
AcDbEntity
8
3
62
8
100
AcDbLine
10
-1200
20
599.999999999995
30
0
11
-1200
21
190.934065934061
31
0
0
LINE
5
120F
330
129C
100
AcDbEntity
8
3
62
8
100
AcDbLine
10
-900
20
-600
30
0
11
-1250
21
-600.000000000006
31
0
0
LINE
5
1210
330
129C
100
AcDbEntity
8
3
62
8
100
AcDbLine
10
-900
20
600
30
0
11
-1250
21
599.999999999994
31
0
0
INSERT
5
1211
330
129C
100
AcDbEntity
8
3
62
8
100
AcDbBlockReference
2
_ArchTick
10
-1200
20
-600.000000000005
30
0
41
60
42
60
50
270
0
INSERT
5
1212
330
129C
100
AcDbEntity
8
3
62
8
100
AcDbBlockReference
2
_ArchTick
10
-1200
20
599.999999999995
30
0
41
60
42
60
50
89.9999999999998
0
ENDBLK
5
12DB
330
129C
100
AcDbEntity
8
0
100
AcDbBlockEnd
0
BLOCK
5
121C
330
129D
100
AcDbEntity
8
0
100
AcDbBlockBegin
2
VD_ANONYM_D2
70
0
71
0
10
0
20
0
30
0
3
VD_ANONYM_D2
1

0
TEXT
5
1215
330
129D
100
AcDbEntity
8
3
62
1
100
AcDbText
10
0
20
0
30
0
40
125
1
600
50
89.9999999999998
72
1
7
romans.shx
11
-925
21
-300
31
0
100
AcDbText
73
0
0
LINE
5
1216
330
129D
100
AcDbEntity
8
3
62
8
100
AcDbLine
10
-900
20
-600
30
0
11
-900
21
-443.20054945055
31
0
0
LINE
5
1217
330
129D
100
AcDbEntity
8
3
62
8
100
AcDbLine
10
-900
20
1.83690953073357E-14
30
0
11
-900
21
-156.799450549451
31
0
0
LINE
5
1218
330
129D
100
AcDbEntity
8
3
62
8
100
AcDbLine
10
-750
20
-600
30
0
11
-950
21
-600
31
0
0
LINE
5
1219
330
129D
100
AcDbEntity
8
3
62
8
100
AcDbLine
10
-750
20
0
30
0
11
-950
21
2.44921270764475E-14
31
0
0
INSERT
5
121A
330
129D
100
AcDbEntity
8
3
62
8
100
AcDbBlockReference
2
_ArchTick
10
-900
20
-600
30
0
41
60
42
60
50
270
0
INSERT
5
121B
330
129D
100
AcDbEntity
8
3
62
8
100
AcDbBlockReference
2
_ArchTick
10
-900
20
1.83690953073357E-14
30
0
41
60
42
60
50
89.9999999999998
0
ENDBLK
5
12DC
330
129D
100
AcDbEntity
8
0
100
AcDbBlockEnd
0
BLOCK
5
1225
330
129E
100
AcDbEntity
8
0
100
AcDbBlockBegin
2
VD_ANONYM_D3
70
0
71
0
10
0
20
0
30
0
3
VD_ANONYM_D3
1

0
TEXT
5
121E
330
129E
100
AcDbEntity
8
3
62
1
100
AcDbText
10
0
20
0
30
0
40
125
1
600
50
89.9999999999998
72
1
7
romans.shx
11
-925
21
300
31
0
100
AcDbText
73
0
0
LINE
5
121F
330
129E
100
AcDbEntity
8
3
62
8
100
AcDbLine
10
-900
20
1.83690953073357E-14
30
0
11
-900
21
156.79945054945
31
0
0
LINE
5
1220
330
129E
100
AcDbEntity
8
3
62
8
100
AcDbLine
10
-900
20
600
30
0
11
-900
21
443.200549450549
31
0
0
LINE
5
1221
330
129E
100
AcDbEntity
8
3
62
8
100
AcDbLine
10
-750
20
0
30
0
11
-950
21
2.44921270764475E-14
31
0
0
LINE
5
1222
330
129E
100
AcDbEntity
8
3
62
8
100
AcDbLine
10
-750
20
600
30
0
11
-950
21
600
31
0
0
INSERT
5
1223
330
129E
100
AcDbEntity
8
3
62
8
100
AcDbBlockReference
2
_ArchTick
10
-900
20
1.83690953073357E-14
30
0
41
60
42
60
50
270
0
INSERT
5
1224
330
129E
100
AcDbEntity
8
3
62
8
100
AcDbBlockReference
2
_ArchTick
10
-900
20
600
30
0
41
60
42
60
50
89.9999999999998
0
ENDBLK
5
12DD
330
129E
100
AcDbEntity
8
0
100
AcDbBlockEnd
0
BLOCK
5
122E
330
129F
100
AcDbEntity
8
0
100
AcDbBlockBegin
2
VD_ANONYM_D4
70
0
71
0
10
0
20
0
30
0
3
VD_ANONYM_D4
1

0
TEXT
5
1227
330
129F
100
AcDbEntity
8
3
62
1
100
AcDbText
10
0
20
0
30
0
40
125
1
2800
50
90.0000000000002
72
1
7
romans.shx
11
2525
21
-5.03823919433335E-12
31
0
100
AcDbText
73
0
0
LINE
5
1228
330
129F
100
AcDbEntity
8
3
62
8
100
AcDbLine
10
2550
20
1400
30
0
11
2550
21
190.934065934061
31
0
0
LINE
5
1229
330
129F
100
AcDbEntity
8
3
62
8
100
AcDbLine
10
2550
20
-1400
30
0
11
2550
21
-190.934065934071
31
0
0
LINE
5
122A
330
129F
100
AcDbEntity
8
3
62
8
100
AcDbLine
10
2700
20
1400
30
0
11
2500
21
1399.99999999999
31
0
0
LINE
5
122B
330
129F
100
AcDbEntity
8
3
62
8
100
AcDbLine
10
2700
20
-1400
30
0
11
2500
21
-1400.00000000001
31
0
0
INSERT
5
122C
330
129F
100
AcDbEntity
8
3
62
8
100
AcDbBlockReference
2
_ArchTick
10
2550
20
1400
30
0
41
60
42
60
50
89.9999999999998
0
INSERT
5
122D
330
129F
100
AcDbEntity
8
3
62
8
100
AcDbBlockReference
2
_ArchTick
10
2550
20
-1400
30
0
41
60
42
60
50
270
0
ENDBLK
5
12DE
330
129F
100
AcDbEntity
8
0
100
AcDbBlockEnd
0
ENDSEC
0
SECTION
2
ENTITIES
0
CIRCLE
5
11D9
330
1270
100
AcDbEntity
8
3
100
AcDbCircle
10
0
20
0
30
0
40
600
0
CIRCLE
5
11DA
330
1270
100
AcDbEntity
8
1
100
AcDbCircle
10
0
20
0
30
0
40
560
0
CIRCLE
5
11DB
330
1270
100
AcDbEntity
8
1
100
AcDbCircle
10
560
20
0
30
0
40
17.1428571428571
1001
VDEXTRAPARAM
1071
12
1071
1
1071
256
1040
1
1000
SOLID
1000

1040
0
1040
0
1071
-1023410175
1071
-1023410176
0
HATCH
5
12DF
330
1270
100
AcDbEntity
8
1
62
1
100
AcDbHatch
10
0.0
20
0.0
30
0
210
0
220
0
230
1
2
SOLID
70
1
71
0
91
1
92
0
93
2
72
2
10
560
20
0
40
17.1428571428571
50
0.0
51
180.0
73
1
72
2
10
560
20
0
40
17.1428571428571
50
180.0
51
360.0
73
1
97
0
75
0
76
1
98
1
10
0.0
20
0.0
1001
VDEXTRAPARAM
1071
12
1071
1
1071
256
1040
1
1000

1000

1040
0
1040
0
1071
-1023410175
1071
-1023410176
1001
VD_TEMPHATCH
1000
VD_TEMPHATCH
0
CIRCLE
5
11DC
330
1270
100
AcDbEntity
8
1
100
AcDbCircle
10
517
20
214
30
0
40
17.1428571428571
1001
VDEXTRAPARAM
1071
12
1071
1
1071
256
1040
1
1000
SOLID
1000

1040
0
1040
0
1071
-1023410175
1071
-1023410176
0
HATCH
5
12E0
330
1270
100
AcDbEntity
8
1
62
1
100
AcDbHatch
10
0.0
20
0.0
30
0
210
0
220
0
230
1
2
SOLID
70
1
71
0
91
1
92
0
93
2
72
2
10
517
20
214
40
17.1428571428571
50
0.0
51
180.0
73
1
72
2
10
517
20
214
40
17.1428571428571
50
180.0
51
360.0
73
1
97
0
75
0
76
1
98
1
10
0.0
20
0.0
1001
VDEXTRAPARAM
1071
12
1071
1
1071
256
1040
1
1000

1000

1040
0
1040
0
1071
-1023410175
1071
-1023410176
1001
VD_TEMPHATCH
1000
VD_TEMPHATCH
0
CIRCLE
5
11DD
330
1270
100
AcDbEntity
8
1
100
AcDbCircle
10
517
20
214
30
0
40
17.1428571428571
1001
VDEXTRAPARAM
1071
12
1071
1
1071
256
1040
1
1000
SOLID
1000

1040
0
1040
0
1071
-1023410175
1071
-1023410176
0
HATCH
5
12E1
330
1270
100
AcDbEntity
8
1
62
1
100
AcDbHatch
10
0.0
20
0.0
30
0
210
0
220
0
230
1
2
SOLID
70
1
71
0
91
1
92
0
93
2
72
2
10
517
20
214
40
17.1428571428571
50
0.0
51
180.0
73
1
72
2
10
517
20
214
40
17.1428571428571
50
180.0
51
360.0
73
1
97
0
75
0
76
1
98
1
10
0.0
20
0.0
1001
VDEXTRAPARAM
1071
12
1071
1
1071
256
1040
1
1000

1000

1040
0
1040
0
1071
-1023410175
1071
-1023410176
1001
VD_TEMPHATCH
1000
VD_TEMPHATCH
0
CIRCLE
5
11DE
330
1270
100
AcDbEntity
8
1
100
AcDbCircle
10
396
20
396
30
0
40
17.1428571428571
1001
VDEXTRAPARAM
1071
12
1071
1
1071
256
1040
1
1000
SOLID
1000

1040
0
1040
0
1071
-1023410175
1071
-1023410176
0
HATCH
5
12E2
330
1270
100
AcDbEntity
8
1
62
1
100
AcDbHatch
10
0.0
20
0.0
30
0
210
0
220
0
230
1
2
SOLID
70
1
71
0
91
1
92
0
93
2
72
2
10
396
20
396
40
17.1428571428571
50
0.0
51
180.0
73
1
72
2
10
396
20
396
40
17.1428571428571
50
180.0
51
360.0
73
1
97
0
75
0
76
1
98
1
10
0.0
20
0.0
1001
VDEXTRAPARAM
1071
12
1071
1
1071
256
1040
1
1000

1000

1040
0
1040
0
1071
-1023410175
1071
-1023410176
1001
VD_TEMPHATCH
1000
VD_TEMPHATCH
0
CIRCLE
5
11DF
330
1270
100
AcDbEntity
8
1
100
AcDbCircle
10
396
20
396
30
0
40
17.1428571428571
1001
VDEXTRAPARAM
1071
12
1071
1
1071
256
1040
1
1000
SOLID
1000

1040
0
1040
0
1071
-1023410175
1071
-1023410176
0
HATCH
5
12E3
330
1270
100
AcDbEntity
8
1
62
1
100
AcDbHatch
10
0.0
20
0.0
30
0
210
0
220
0
230
1
2
SOLID
70
1
71
0
91
1
92
0
93
2
72
2
10
396
20
396
40
17.1428571428571
50
0.0
51
180.0
73
1
72
2
10
396
20
396
40
17.1428571428571
50
180.0
51
360.0
73
1
97
0
75
0
76
1
98
1
10
0.0
20
0.0
1001
VDEXTRAPARAM
1071
12
1071
1
1071
256
1040
1
1000

1000

1040
0
1040
0
1071
-1023410175
1071
-1023410176
1001
VD_TEMPHATCH
1000
VD_TEMPHATCH
0
INSERT
5
11E0
330
1270
100
AcDbEntity
8
3
100
AcDbBlockReference
66
1
2
thep_doc_cot
10
396
20
413
30
0
0
ATTRIB
5
12E4
330
11E0
100
AcDbEntity
67
1
8
3
62
4
100
AcDbText
10
547.661675725056
20
622.241861334149
30
0
40
125
1
D18
7
romans.shx
11
396
21
413
31
0
100
AcDbAttribute
2
D25
70
0
74
0
1001
AcDbAttr
1070
0
1070
1
0
SEQEND
5
12E5
330
11E0
100
AcDbEntity
8
3
0
CIRCLE
5
11E1
330
1270
100
AcDbEntity
8
1
100
AcDbCircle
10
214
20
517
30
0
40
17.1428571428571
1001
VDEXTRAPARAM
1071
12
1071
1
1071
256
1040
1
1000
SOLID
1000

1040
0
1040
0
1071
-1023410175
1071
-1023410176
0
HATCH
5
12E6
330
1270
100
AcDbEntity
8
1
62
1
100
AcDbHatch
10
0.0
20
0.0
30
0
210
0
220
0
230
1
2
SOLID
70
1
71
0
91
1
92
0
93
2
72
2
10
214
20
517
40
17.1428571428571
50
0.0
51
180.0
73
1
72
2
10
214
20
517
40
17.1428571428571
50
180.0
51
360.0
73
1
97
0
75
0
76
1
98
1
10
0.0
20
0.0
1001
VDEXTRAPARAM
1071
12
1071
1
1071
256
1040
1
1000

1000

1040
0
1040
0
1071
-1023410175
1071
-1023410176
1001
VD_TEMPHATCH
1000
VD_TEMPHATCH
0
CIRCLE
5
11E2
330
1270
100
AcDbEntity
8
1
100
AcDbCircle
10
214
20
517
30
0
40
17.1428571428571
1001
VDEXTRAPARAM
1071
12
1071
1
1071
256
1040
1
1000
SOLID
1000

1040
0
1040
0
1071
-1023410175
1071
-1023410176
0
HATCH
5
12E7
330
1270
100
AcDbEntity
8
1
62
1
100
AcDbHatch
10
0.0
20
0.0
30
0
210
0
220
0
230
1
2
SOLID
70
1
71
0
91
1
92
0
93
2
72
2
10
214
20
517
40
17.1428571428571
50
0.0
51
180.0
73
1
72
2
10
214
20
517
40
17.1428571428571
50
180.0
51
360.0
73
1
97
0
75
0
76
1
98
1
10
0.0
20
0.0
1001
VDEXTRAPARAM
1071
12
1071
1
1071
256
1040
1
1000

1000

1040
0
1040
0
1071
-1023410175
1071
-1023410176
1001
VD_TEMPHATCH
1000
VD_TEMPHATCH
0
CIRCLE
5
11E3
330
1270
100
AcDbEntity
8
1
100
AcDbCircle
10
0
20
560
30
0
40
17.1428571428571
1001
VDEXTRAPARAM
1071
12
1071
1
1071
256
1040
1
1000
SOLID
1000

1040
0
1040
0
1071
-1023410175
1071
-1023410176
0
HATCH
5
12E8
330
1270
100
AcDbEntity
8
1
62
1
100
AcDbHatch
10
0.0
20
0.0
30
0
210
0
220
0
230
1
2
SOLID
70
1
71
0
91
1
92
0
93
2
72
2
10
0
20
560
40
17.1428571428571
50
0.0
51
180.0
73
1
72
2
10
0
20
560
40
17.1428571428571
50
180.0
51
360.0
73
1
97
0
75
0
76
1
98
1
10
0.0
20
0.0
1001
VDEXTRAPARAM
1071
12
1071
1
1071
256
1040
1
1000

1000

1040
0
1040
0
1071
-1023410175
1071
-1023410176
1001
VD_TEMPHATCH
1000
VD_TEMPHATCH
0
CIRCLE
5
11E4
330
1270
100
AcDbEntity
8
1
100
AcDbCircle
10
-214
20
517
30
0
40
17.1428571428571
1001
VDEXTRAPARAM
1071
12
1071
1
1071
256
1040
1
1000
SOLID
1000

1040
0
1040
0
1071
-1023410175
1071
-1023410176
0
HATCH
5
12E9
330
1270
100
AcDbEntity
8
1
62
1
100
AcDbHatch
10
0.0
20
0.0
30
0
210
0
220
0
230
1
2
SOLID
70
1
71
0
91
1
92
0
93
2
72
2
10
-214
20
517
40
17.1428571428571
50
0.0
51
180.0
73
1
72
2
10
-214
20
517
40
17.1428571428571
50
180.0
51
360.0
73
1
97
0
75
0
76
1
98
1
10
0.0
20
0.0
1001
VDEXTRAPARAM
1071
12
1071
1
1071
256
1040
1
1000

1000

1040
0
1040
0
1071
-1023410175
1071
-1023410176
1001
VD_TEMPHATCH
1000
VD_TEMPHATCH
0
CIRCLE
5
11E5
330
1270
100
AcDbEntity
8
1
100
AcDbCircle
10
-214
20
517
30
0
40
17.1428571428571
1001
VDEXTRAPARAM
1071
12
1071
1
1071
256
1040
1
1000
SOLID
1000

1040
0
1040
0
1071
-1023410175
1071
-1023410176
0
HATCH
5
12EA
330
1270
100
AcDbEntity
8
1
62
1
100
AcDbHatch
10
0.0
20
0.0
30
0
210
0
220
0
230
1
2
SOLID
70
1
71
0
91
1
92
0
93
2
72
2
10
-214
20
517
40
17.1428571428571
50
0.0
51
180.0
73
1
72
2
10
-214
20
517
40
17.1428571428571
50
180.0
51
360.0
73
1
97
0
75
0
76
1
98
1
10
0.0
20
0.0
1001
VDEXTRAPARAM
1071
12
1071
1
1071
256
1040
1
1000

1000

1040
0
1040
0
1071
-1023410175
1071
-1023410176
1001
VD_TEMPHATCH
1000
VD_TEMPHATCH
0
CIRCLE
5
11E6
330
1270
100
AcDbEntity
8
1
100
AcDbCircle
10
-396
20
396
30
0
40
17.1428571428571
1001
VDEXTRAPARAM
1071
12
1071
1
1071
256
1040
1
1000
SOLID
1000

1040
0
1040
0
1071
-1023410175
1071
-1023410176
0
HATCH
5
12EB
330
1270
100
AcDbEntity
8
1
62
1
100
AcDbHatch
10
0.0
20
0.0
30
0
210
0
220
0
230
1
2
SOLID
70
1
71
0
91
1
92
0
93
2
72
2
10
-396
20
396
40
17.1428571428571
50
0.0
51
180.0
73
1
72
2
10
-396
20
396
40
17.1428571428571
50
180.0
51
360.0
73
1
97
0
75
0
76
1
98
1
10
0.0
20
0.0
1001
VDEXTRAPARAM
1071
12
1071
1
1071
256
1040
1
1000

1000

1040
0
1040
0
1071
-1023410175
1071
-1023410176
1001
VD_TEMPHATCH
1000
VD_TEMPHATCH
0
CIRCLE
5
11E7
330
1270
100
AcDbEntity
8
1
100
AcDbCircle
10
-396
20
396
30
0
40
17.1428571428571
1001
VDEXTRAPARAM
1071
12
1071
1
1071
256
1040
1
1000
SOLID
1000

1040
0
1040
0
1071
-1023410175
1071
-1023410176
0
HATCH
5
12EC
330
1270
100
AcDbEntity
8
1
62
1
100
AcDbHatch
10
0.0
20
0.0
30
0
210
0
220
0
230
1
2
SOLID
70
1
71
0
91
1
92
0
93
2
72
2
10
-396
20
396
40
17.1428571428571
50
0.0
51
180.0
73
1
72
2
10
-396
20
396
40
17.1428571428571
50
180.0
51
360.0
73
1
97
0
75
0
76
1
98
1
10
0.0
20
0.0
1001
VDEXTRAPARAM
1071
12
1071
1
1071
256
1040
1
1000

1000

1040
0
1040
0
1071
-1023410175
1071
-1023410176
1001
VD_TEMPHATCH
1000
VD_TEMPHATCH
0
CIRCLE
5
11E8
330
1270
100
AcDbEntity
8
1
100
AcDbCircle
10
-517
20
214
30
0
40
17.1428571428571
1001
VDEXTRAPARAM
1071
12
1071
1
1071
256
1040
1
1000
SOLID
1000

1040
0
1040
0
1071
-1023410175
1071
-1023410176
0
HATCH
5
12ED
330
1270
100
AcDbEntity
8
1
62
1
100
AcDbHatch
10
0.0
20
0.0
30
0
210
0
220
0
230
1
2
SOLID
70
1
71
0
91
1
92
0
93
2
72
2
10
-517
20
214
40
17.1428571428571
50
0.0
51
180.0
73
1
72
2
10
-517
20
214
40
17.1428571428571
50
180.0
51
360.0
73
1
97
0
75
0
76
1
98
1
10
0.0
20
0.0
1001
VDEXTRAPARAM
1071
12
1071
1
1071
256
1040
1
1000

1000

1040
0
1040
0
1071
-1023410175
1071
-1023410176
1001
VD_TEMPHATCH
1000
VD_TEMPHATCH
0
CIRCLE
5
11E9
330
1270
100
AcDbEntity
8
1
100
AcDbCircle
10
-517
20
214
30
0
40
17.1428571428571
1001
VDEXTRAPARAM
1071
12
1071
1
1071
256
1040
1
1000
SOLID
1000

1040
0
1040
0
1071
-1023410175
1071
-1023410176
0
HATCH
5
12EE
330
1270
100
AcDbEntity
8
1
62
1
100
AcDbHatch
10
0.0
20
0.0
30
0
210
0
220
0
230
1
2
SOLID
70
1
71
0
91
1
92
0
93
2
72
2
10
-517
20
214
40
17.1428571428571
50
0.0
51
180.0
73
1
72
2
10
-517
20
214
40
17.1428571428571
50
180.0
51
360.0
73
1
97
0
75
0
76
1
98
1
10
0.0
20
0.0
1001
VDEXTRAPARAM
1071
12
1071
1
1071
256
1040
1
1000

1000

1040
0
1040
0
1071
-1023410175
1071
-1023410176
1001
VD_TEMPHATCH
1000
VD_TEMPHATCH
0
CIRCLE
5
11EA
330
1270
100
AcDbEntity
8
1
100
AcDbCircle
10
-560
20
0
30
0
40
17.1428571428571
1001
VDEXTRAPARAM
1071
12
1071
1
1071
256
1040
1
1000
SOLID
1000

1040
0
1040
0
1071
-1023410175
1071
-1023410176
0
HATCH
5
12EF
330
1270
100
AcDbEntity
8
1
62
1
100
AcDbHatch
10
0.0
20
0.0
30
0
210
0
220
0
230
1
2
SOLID
70
1
71
0
91
1
92
0
93
2
72
2
10
-560
20
0
40
17.1428571428571
50
0.0
51
180.0
73
1
72
2
10
-560
20
0
40
17.1428571428571
50
180.0
51
360.0
73
1
97
0
75
0
76
1
98
1
10
0.0
20
0.0
1001
VDEXTRAPARAM
1071
12
1071
1
1071
256
1040
1
1000

1000

1040
0
1040
0
1071
-1023410175
1071
-1023410176
1001
VD_TEMPHATCH
1000
VD_TEMPHATCH
0
CIRCLE
5
11EB
330
1270
100
AcDbEntity
8
1
100
AcDbCircle
10
-517
20
-214
30
0
40
17.1428571428571
1001
VDEXTRAPARAM
1071
12
1071
1
1071
256
1040
1
1000
SOLID
1000

1040
0
1040
0
1071
-1023410175
1071
-1023410176
0
HATCH
5
12F0
330
1270
100
AcDbEntity
8
1
62
1
100
AcDbHatch
10
0.0
20
0.0
30
0
210
0
220
0
230
1
2
SOLID
70
1
71
0
91
1
92
0
93
2
72
2
10
-517
20
-214
40
17.1428571428571
50
0.0
51
180.0
73
1
72
2
10
-517
20
-214
40
17.1428571428571
50
180.0
51
360.0
73
1
97
0
75
0
76
1
98
1
10
0.0
20
0.0
1001
VDEXTRAPARAM
1071
12
1071
1
1071
256
1040
1
1000

1000

1040
0
1040
0
1071
-1023410175
1071
-1023410176
1001
VD_TEMPHATCH
1000
VD_TEMPHATCH
0
CIRCLE
5
11EC
330
1270
100
AcDbEntity
8
1
100
AcDbCircle
10
-517
20
-214
30
0
40
17.1428571428571
1001
VDEXTRAPARAM
1071
12
1071
1
1071
256
1040
1
1000
SOLID
1000

1040
0
1040
0
1071
-1023410175
1071
-1023410176
0
HATCH
5
12F1
330
1270
100
AcDbEntity
8
1
62
1
100
AcDbHatch
10
0.0
20
0.0
30
0
210
0
220
0
230
1
2
SOLID
70
1
71
0
91
1
92
0
93
2
72
2
10
-517
20
-214
40
17.1428571428571
50
0.0
51
180.0
73
1
72
2
10
-517
20
-214
40
17.1428571428571
50
180.0
51
360.0
73
1
97
0
75
0
76
1
98
1
10
0.0
20
0.0
1001
VDEXTRAPARAM
1071
12
1071
1
1071
256
1040
1
1000

1000

1040
0
1040
0
1071
-1023410175
1071
-1023410176
1001
VD_TEMPHATCH
1000
VD_TEMPHATCH
0
CIRCLE
5
11ED
330
1270
100
AcDbEntity
8
1
100
AcDbCircle
10
-396
20
-396
30
0
40
17.1428571428571
1001
VDEXTRAPARAM
1071
12
1071
1
1071
256
1040
1
1000
SOLID
1000

1040
0
1040
0
1071
-1023410175
1071
-1023410176
0
HATCH
5
12F2
330
1270
100
AcDbEntity
8
1
62
1
100
AcDbHatch
10
0.0
20
0.0
30
0
210
0
220
0
230
1
2
SOLID
70
1
71
0
91
1
92
0
93
2
72
2
10
-396
20
-396
40
17.1428571428571
50
0.0
51
180.0
73
1
72
2
10
-396
20
-396
40
17.1428571428571
50
180.0
51
360.0
73
1
97
0
75
0
76
1
98
1
10
0.0
20
0.0
1001
VDEXTRAPARAM
1071
12
1071
1
1071
256
1040
1
1000

1000

1040
0
1040
0
1071
-1023410175
1071
-1023410176
1001
VD_TEMPHATCH
1000
VD_TEMPHATCH
0
CIRCLE
5
11EE
330
1270
100
AcDbEntity
8
1
100
AcDbCircle
10
-396
20
-396
30
0
40
17.1428571428571
1001
VDEXTRAPARAM
1071
12
1071
1
1071
256
1040
1
1000
SOLID
1000

1040
0
1040
0
1071
-1023410175
1071
-1023410176
0
HATCH
5
12F3
330
1270
100
AcDbEntity
8
1
62
1
100
AcDbHatch
10
0.0
20
0.0
30
0
210
0
220
0
230
1
2
SOLID
70
1
71
0
91
1
92
0
93
2
72
2
10
-396
20
-396
40
17.1428571428571
50
0.0
51
180.0
73
1
72
2
10
-396
20
-396
40
17.1428571428571
50
180.0
51
360.0
73
1
97
0
75
0
76
1
98
1
10
0.0
20
0.0
1001
VDEXTRAPARAM
1071
12
1071
1
1071
256
1040
1
1000

1000

1040
0
1040
0
1071
-1023410175
1071
-1023410176
1001
VD_TEMPHATCH
1000
VD_TEMPHATCH
0
CIRCLE
5
11EF
330
1270
100
AcDbEntity
8
1
100
AcDbCircle
10
-214
20
-517
30
0
40
17.1428571428571
1001
VDEXTRAPARAM
1071
12
1071
1
1071
256
1040
1
1000
SOLID
1000

1040
0
1040
0
1071
-1023410175
1071
-1023410176
0
HATCH
5
12F4
330
1270
100
AcDbEntity
8
1
62
1
100
AcDbHatch
10
0.0
20
0.0
30
0
210
0
220
0
230
1
2
SOLID
70
1
71
0
91
1
92
0
93
2
72
2
10
-214
20
-517
40
17.1428571428571
50
0.0
51
180.0
73
1
72
2
10
-214
20
-517
40
17.1428571428571
50
180.0
51
360.0
73
1
97
0
75
0
76
1
98
1
10
0.0
20
0.0
1001
VDEXTRAPARAM
1071
12
1071
1
1071
256
1040
1
1000

1000

1040
0
1040
0
1071
-1023410175
1071
-1023410176
1001
VD_TEMPHATCH
1000
VD_TEMPHATCH
0
CIRCLE
5
11F0
330
1270
100
AcDbEntity
8
1
100
AcDbCircle
10
-214
20
-517
30
0
40
17.1428571428571
1001
VDEXTRAPARAM
1071
12
1071
1
1071
256
1040
1
1000
SOLID
1000

1040
0
1040
0
1071
-1023410175
1071
-1023410176
0
HATCH
5
12F5
330
1270
100
AcDbEntity
8
1
62
1
100
AcDbHatch
10
0.0
20
0.0
30
0
210
0
220
0
230
1
2
SOLID
70
1
71
0
91
1
92
0
93
2
72
2
10
-214
20
-517
40
17.1428571428571
50
0.0
51
180.0
73
1
72
2
10
-214
20
-517
40
17.1428571428571
50
180.0
51
360.0
73
1
97
0
75
0
76
1
98
1
10
0.0
20
0.0
1001
VDEXTRAPARAM
1071
12
1071
1
1071
256
1040
1
1000

1000

1040
0
1040
0
1071
-1023410175
1071
-1023410176
1001
VD_TEMPHATCH
1000
VD_TEMPHATCH
0
CIRCLE
5
11F1
330
1270
100
AcDbEntity
8
1
100
AcDbCircle
10
0
20
-560
30
0
40
17.1428571428571
1001
VDEXTRAPARAM
1071
12
1071
1
1071
256
1040
1
1000
SOLID
1000

1040
0
1040
0
1071
-1023410175
1071
-1023410176
0
HATCH
5
12F6
330
1270
100
AcDbEntity
8
1
62
1
100
AcDbHatch
10
0.0
20
0.0
30
0
210
0
220
0
230
1
2
SOLID
70
1
71
0
91
1
92
0
93
2
72
2
10
0
20
-560
40
17.1428571428571
50
0.0
51
180.0
73
1
72
2
10
0
20
-560
40
17.1428571428571
50
180.0
51
360.0
73
1
97
0
75
0
76
1
98
1
10
0.0
20
0.0
1001
VDEXTRAPARAM
1071
12
1071
1
1071
256
1040
1
1000

1000

1040
0
1040
0
1071
-1023410175
1071
-1023410176
1001
VD_TEMPHATCH
1000
VD_TEMPHATCH
0
CIRCLE
5
11F2
330
1270
100
AcDbEntity
8
1
100
AcDbCircle
10
214
20
-517
30
0
40
17.1428571428571
1001
VDEXTRAPARAM
1071
12
1071
1
1071
256
1040
1
1000
SOLID
1000

1040
0
1040
0
1071
-1023410175
1071
-1023410176
0
HATCH
5
12F7
330
1270
100
AcDbEntity
8
1
62
1
100
AcDbHatch
10
0.0
20
0.0
30
0
210
0
220
0
230
1
2
SOLID
70
1
71
0
91
1
92
0
93
2
72
2
10
214
20
-517
40
17.1428571428571
50
0.0
51
180.0
73
1
72
2
10
214
20
-517
40
17.1428571428571
50
180.0
51
360.0
73
1
97
0
75
0
76
1
98
1
10
0.0
20
0.0
1001
VDEXTRAPARAM
1071
12
1071
1
1071
256
1040
1
1000

1000

1040
0
1040
0
1071
-1023410175
1071
-1023410176
1001
VD_TEMPHATCH
1000
VD_TEMPHATCH
0
CIRCLE
5
11F3
330
1270
100
AcDbEntity
8
1
100
AcDbCircle
10
214
20
-517
30
0
40
17.1428571428571
1001
VDEXTRAPARAM
1071
12
1071
1
1071
256
1040
1
1000
SOLID
1000

1040
0
1040
0
1071
-1023410175
1071
-1023410176
0
HATCH
5
12F8
330
1270
100
AcDbEntity
8
1
62
1
100
AcDbHatch
10
0.0
20
0.0
30
0
210
0
220
0
230
1
2
SOLID
70
1
71
0
91
1
92
0
93
2
72
2
10
214
20
-517
40
17.1428571428571
50
0.0
51
180.0
73
1
72
2
10
214
20
-517
40
17.1428571428571
50
180.0
51
360.0
73
1
97
0
75
0
76
1
98
1
10
0.0
20
0.0
1001
VDEXTRAPARAM
1071
12
1071
1
1071
256
1040
1
1000

1000

1040
0
1040
0
1071
-1023410175
1071
-1023410176
1001
VD_TEMPHATCH
1000
VD_TEMPHATCH
0
CIRCLE
5
11F4
330
1270
100
AcDbEntity
8
1
100
AcDbCircle
10
396
20
-396
30
0
40
17.1428571428571
1001
VDEXTRAPARAM
1071
12
1071
1
1071
256
1040
1
1000
SOLID
1000

1040
0
1040
0
1071
-1023410175
1071
-1023410176
0
HATCH
5
12F9
330
1270
100
AcDbEntity
8
1
62
1
100
AcDbHatch
10
0.0
20
0.0
30
0
210
0
220
0
230
1
2
SOLID
70
1
71
0
91
1
92
0
93
2
72
2
10
396
20
-396
40
17.1428571428571
50
0.0
51
180.0
73
1
72
2
10
396
20
-396
40
17.1428571428571
50
180.0
51
360.0
73
1
97
0
75
0
76
1
98
1
10
0.0
20
0.0
1001
VDEXTRAPARAM
1071
12
1071
1
1071
256
1040
1
1000

1000

1040
0
1040
0
1071
-1023410175
1071
-1023410176
1001
VD_TEMPHATCH
1000
VD_TEMPHATCH
0
CIRCLE
5
11F5
330
1270
100
AcDbEntity
8
1
100
AcDbCircle
10
396
20
-396
30
0
40
17.1428571428571
1001
VDEXTRAPARAM
1071
12
1071
1
1071
256
1040
1
1000
SOLID
1000

1040
0
1040
0
1071
-1023410175
1071
-1023410176
0
HATCH
5
12FA
330
1270
100
AcDbEntity
8
1
62
1
100
AcDbHatch
10
0.0
20
0.0
30
0
210
0
220
0
230
1
2
SOLID
70
1
71
0
91
1
92
0
93
2
72
2
10
396
20
-396
40
17.1428571428571
50
0.0
51
180.0
73
1
72
2
10
396
20
-396
40
17.1428571428571
50
180.0
51
360.0
73
1
97
0
75
0
76
1
98
1
10
0.0
20
0.0
1001
VDEXTRAPARAM
1071
12
1071
1
1071
256
1040
1
1000

1000

1040
0
1040
0
1071
-1023410175
1071
-1023410176
1001
VD_TEMPHATCH
1000
VD_TEMPHATCH
0
CIRCLE
5
11F6
330
1270
100
AcDbEntity
8
1
100
AcDbCircle
10
517
20
-214
30
0
40
17.1428571428571
1001
VDEXTRAPARAM
1071
12
1071
1
1071
256
1040
1
1000
SOLID
1000

1040
0
1040
0
1071
-1023410175
1071
-1023410176
0
HATCH
5
12FB
330
1270
100
AcDbEntity
8
1
62
1
100
AcDbHatch
10
0.0
20
0.0
30
0
210
0
220
0
230
1
2
SOLID
70
1
71
0
91
1
92
0
93
2
72
2
10
517
20
-214
40
17.1428571428571
50
0.0
51
180.0
73
1
72
2
10
517
20
-214
40
17.1428571428571
50
180.0
51
360.0
73
1
97
0
75
0
76
1
98
1
10
0.0
20
0.0
1001
VDEXTRAPARAM
1071
12
1071
1
1071
256
1040
1
1000

1000

1040
0
1040
0
1071
-1023410175
1071
-1023410176
1001
VD_TEMPHATCH
1000
VD_TEMPHATCH
0
CIRCLE
5
11F7
330
1270
100
AcDbEntity
8
1
100
AcDbCircle
10
517
20
-214
30
0
40
17.1428571428571
1001
VDEXTRAPARAM
1071
12
1071
1
1071
256
1040
1
1000
SOLID
1000

1040
0
1040
0
1071
-1023410175
1071
-1023410176
0
HATCH
5
12FC
330
1270
100
AcDbEntity
8
1
62
1
100
AcDbHatch
10
0.0
20
0.0
30
0
210
0
220
0
230
1
2
SOLID
70
1
71
0
91
1
92
0
93
2
72
2
10
517
20
-214
40
17.1428571428571
50
0.0
51
180.0
73
1
72
2
10
517
20
-214
40
17.1428571428571
50
180.0
51
360.0
73
1
97
0
75
0
76
1
98
1
10
0.0
20
0.0
1001
VDEXTRAPARAM
1071
12
1071
1
1071
256
1040
1
1000

1000

1040
0
1040
0
1071
-1023410175
1071
-1023410176
1001
VD_TEMPHATCH
1000
VD_TEMPHATCH
0
CIRCLE
5
11F8
330
1270
100
AcDbEntity
8
1
100
AcDbCircle
10
560
20
0
30
0
40
17.1428571428571
1001
VDEXTRAPARAM
1071
12
1071
1
1071
256
1040
1
1000
SOLID
1000

1040
0
1040
0
1071
-1023410175
1071
-1023410176
0
HATCH
5
12FD
330
1270
100
AcDbEntity
8
1
62
1
100
AcDbHatch
10
0.0
20
0.0
30
0
210
0
220
0
230
1
2
SOLID
70
1
71
0
91
1
92
0
93
2
72
2
10
560
20
0
40
17.1428571428571
50
0.0
51
180.0
73
1
72
2
10
560
20
0
40
17.1428571428571
50
180.0
51
360.0
73
1
97
0
75
0
76
1
98
1
10
0.0
20
0.0
1001
VDEXTRAPARAM
1071
12
1071
1
1071
256
1040
1
1000

1000

1040
0
1040
0
1071
-1023410175
1071
-1023410176
1001
VD_TEMPHATCH
1000
VD_TEMPHATCH
0
LINE
5
11F9
330
1270
100
AcDbEntity
8
1
100
AcDbLine
10
396
20
413
30
0
11
-396
21
413
31
0
0
LINE
5
11FA
330
1270
100
AcDbEntity
8
1
100
AcDbLine
10
-413
20
396
30
0
11
-413
21
-396
31
0
0
LINE
5
11FB
330
1270
100
AcDbEntity
8
1
100
AcDbLine
10
-396
20
-413
30
0
11
396
21
-413
31
0
0
LINE
5
11FC
330
1270
100
AcDbEntity
8
1
100
AcDbLine
10
413
20
-396
30
0
11
413
21
396
31
0
0
LINE
5
11FD
330
1270
100
AcDbEntity
8
1
100
AcDbLine
10
214
20
534
30
0
11
-214
21
534
31
0
0
LINE
5
11FE
330
1270
100
AcDbEntity
8
1
100
AcDbLine
10
-231
20
517
30
0
11
-231
21
-517
31
0
0
LINE
5
11FF
330
1270
100
AcDbEntity
8
1
100
AcDbLine
10
-214
20
-534
30
0
11
214
21
-534
31
0
0
LINE
5
1200
330
1270
100
AcDbEntity
8
1
100
AcDbLine
10
231
20
-517
30
0
11
231
21
517
31
0
0
LINE
5
1201
330
1270
100
AcDbEntity
8
1
100
AcDbLine
10
517
20
231
30
0
11
-517
21
231
31
0
0
LINE
5
1202
330
1270
100
AcDbEntity
8
1
100
AcDbLine
10
-534
20
214
30
0
11
-534
21
-214
31
0
0
LINE
5
1203
330
1270
100
AcDbEntity
8
1
100
AcDbLine
10
-517
20
-231
30
0
11
517
21
-231
31
0
0
LINE
5
1204
330
1270
100
AcDbEntity
8
1
100
AcDbLine
10
534
20
-214
30
0
11
534
21
214
31
0
0
DIMENSION
5
1205
330
1270
100
AcDbEntity
8
3
100
AcDbDimension
10
-1200
20
0
30
0
11
-1225
21
-5.20166402355818E-12
31
0
70
161
71
0
42
1200
3
Dai Coc
100
AcDbAlignedDimension
13
-900
23
-600
33
0
14
-900
24
600
34
0
0
DIMENSION
5
1206
330
1270
100
AcDbEntity
8
3
100
AcDbDimension
10
-900
20
-300
30
0
11
-925
21
-300
31
0
70
161
71
0
42
600
3
Dai Coc
100
AcDbAlignedDimension
13
-750
23
-600
33
0
14
-750
24
0
34
0
0
DIMENSION
5
1207
330
1270
100
AcDbEntity
8
3
100
AcDbDimension
10
-900
20
300
30
0
11
-925
21
300
31
0
70
161
71
0
42
600
3
Dai Coc
100
AcDbAlignedDimension
13
-750
23
0
33
0
14
-750
24
600
34
0
0
TEXT
5
1208
330
1270
100
AcDbEntity
8
2
100
AcDbText
10
0
20
0
30
0
40
200
1
1-1
7
ARIAL
11
-150
21
-1100
31
0
100
AcDbText
73
1
0
LWPOLYLINE
5
1209
330
1270
100
AcDbEntity
8
3
100
AcDbPolyline
90
4
70
1
43
0
38
0
10
3000
20
-1400
10
4200
20
-1400
10
4199.99999999999
20
1400
10
2999.99999999999
20
1400
0
DIMENSION
5
120A
330
1270
100
AcDbEntity
8
3
100
AcDbDimension
10
2550
20
0
30
0
11
2525
21
-5.03823919433335E-12
31
0
70
161
71
0
42
2800
3
Dai Coc
100
AcDbAlignedDimension
13
2700
23
1400
33
0
14
2700
24
-1400
34
0
0
VIEWPORT
5
12FE
330
1271
100
AcDbEntity
67
1
8
0
100
AcDbViewport
10
0
20
0
30
0
40
24.97
41
10
68
1
69
1
12
0
22
0
13
0.0
23
0.0
14
1.0
24
1.0
15
1.0
25
1.0
16
0
26
0
36
1
17
0
27
0
37
0
42
50.0
43
0.0
44
0.0
45
10
50
0.0
51
0
72
1000
90
32800
1

281
0
71
1
74
0
110
0.0
120
0.0
130
0.0
111
1.0
121
0.0
131
0.0
112
0.0
122
1.0
132
0.0
79
0
146
0.0
0
ENDSEC
0
SECTION
2
OBJECTS
0
DICTIONARY
5
12FF
330
0
100
AcDbDictionary
281
1
3
ACAD_GROUP
350
1300
3
ACAD_LAYOUT
350
1301
3
ACAD_MLINESTYLE
350
1302
3
ACAD_PLOTSETTINGS
350
1303
3
ACAD_PLOTSTYLENAME
350
1304
3
VECTORDRAW_OBJECTS
350
1305
3
DWGPROPS
350
1306
0
DICTIONARY
5
1300
102
{ACAD_REACTORS
330
12FF
102
}
330
12FF
100
AcDbDictionary
281
1
0
DICTIONARY
5
1301
102
{ACAD_REACTORS
330
12FF
102
}
330
12FF
100
AcDbDictionary
281
1
3
Layout1
350
11D0
3
Layout2
350
11D1
3
Model
350
126E
0
DICTIONARY
5
1302
102
{ACAD_REACTORS
330
12FF
102
}
330
12FF
100
AcDbDictionary
281
1
3
Standard
350
1307
0
DICTIONARY
5
1303
102
{ACAD_REACTORS
330
12FF
102
}
330
12FF
100
AcDbDictionary
281
1
0
ACDBDICTIONARYWDFLT
5
1304
102
{ACAD_REACTORS
330
12FF
102
}
330
12FF
100
AcDbDictionary
281
1
3
Normal
350
124E
100
AcDbDictionaryWithDefault
340
124E
0
DICTIONARY
5
1305
102
{ACAD_REACTORS
330
12FF
102
}
330
12FF
100
AcDbDictionary
281
1
3
SERIALNO
350
1308
0
LAYOUT
5
11D0
102
{ACAD_REACTORS
330
1301
102
}
330
1301
100
AcDbPlotSettings
1

2
none_device
4

6

40
0.0
41
0.0
42
0.0
43
0.0
44
210
45
297
46
0.0
47
0.0
48
0.0
49
0.0
140
0.0
141
0.0
142
1.0
143
1.0
70
688
72
0
73
1
74
5
7

75
16
147
1.0
148
0.0
149
0.0
100
AcDbLayout
1
Layout1
70
1
71
1
10
0
20
0
11
12
21
9
12
0.0
22
0.0
32
0.0
14
0
24
0
34
0
15
12
25
9
35
0
146
0.0
13
0.0
23
0.0
33
0.0
16
1.0
26
0.0
36
0.0
17
0.0
27
1.0
37
0.0
76
0
330
1271
1001
VD_EX_PRINTER_NAME
1000

1001
VD_EX_PRINTER_PAPER
1070
0
1001
VD_EX_PRINTER_ORIENT
1070
1
1001
VD_EX_PRINTER_SIZEX
1040
210
1001
VD_EX_PRINTER_SIZEY
1040
297
1001
VD_EX_PRINTER_AVSIZEX
1040
210
1001
VD_EX_PRINTER_AVSIZEY
1040
297
1001
VD_EX_PRINTER_MARX
1040
0
1001
VD_EX_PRINTER_MARY
1040
0
1001
VD_EX_PRINTER_PAPER_NAME
1000

0
LAYOUT
5
11D1
102
{ACAD_REACTORS
330
1301
102
}
330
1301
100
AcDbPlotSettings
1

2
none_device
4

6

40
0.0
41
0.0
42
0.0
43
0.0
44
210
45
297
46
0.0
47
0.0
48
0.0
49
0.0
140
0.0
141
0.0
142
1.0
143
1.0
70
688
72
0
73
1
74
5
7

75
16
147
1.0
148
0.0
149
0.0
100
AcDbLayout
1
Layout2
70
1
71
2
10
0
20
0
11
12
21
9
12
0.0
22
0.0
32
0.0
14
0
24
0
34
0
15
12
25
9
35
0
146
0.0
13
0.0
23
0.0
33
0.0
16
1.0
26
0.0
36
0.0
17
0.0
27
1.0
37
0.0
76
0
330
1272
331
12AD
1001
VD_EX_PRINTER_NAME
1000

1001
VD_EX_PRINTER_PAPER
1070
0
1001
VD_EX_PRINTER_ORIENT
1070
1
1001
VD_EX_PRINTER_SIZEX
1040
210
1001
VD_EX_PRINTER_SIZEY
1040
297
1001
VD_EX_PRINTER_AVSIZEX
1040
210
1001
VD_EX_PRINTER_AVSIZEY
1040
297
1001
VD_EX_PRINTER_MARX
1040
0
1001
VD_EX_PRINTER_MARY
1040
0
1001
VD_EX_PRINTER_PAPER_NAME
1000

0
LAYOUT
5
126E
102
{ACAD_REACTORS
330
1301
102
}
330
1301
100
AcDbPlotSettings
1
VectorDraw Printer Drawing
2

4

6

40
0.0
41
0.0
42
0.0
43
0.0
44
210
45
297
46
0.0
47
0.0
48
0.0
49
0.0
140
0.0
141
0.0
142
1.0
143
1.0
70
1712
72
0
73
1
74
1
7

75
0
147
1.0
148
0.0
149
0.0
100
AcDbLayout
1
Model
70
1
71
0
10
0
20
0
11
1
21
1
12
0.0
22
0.0
32
0.0
14
-1350
24
-1434.50000000001
34
-0.075
15
4200
25
1434.5
35
0.075
146
0.0
13
0.0
23
0.0
33
0.0
16
1.0
26
0.0
36
0.0
17
0.0
27
1.0
37
0.0
76
0
330
1270
1001
VD_EX_PRINTER_DWG_STYLE_SHEET
1000

1001
VD_EX_PRINTER_SIZEX
1040
210
1001
VD_EX_PRINTER_AVSIZEX
1040
210
1001
VD_EX_PRINTER_SIZEY
1040
297
1001
VD_EX_PRINTER_AVSIZEY
1040
297
1001
VD_EX_PRINTER_NAME
1000

1001
VD_EX_PRINTER_PAPER
1070
0
1001
VD_EX_PRINTER_ORIENT
1070
1
1001
VD_EX_PRINTER_MARX
1040
0
1001
VD_EX_PRINTER_MARY
1040
5.31177093353618E-315
1001
VD_EX_PRINTER_PAPER_NAME
1000

0
MLINESTYLE
5
1307
102
{ACAD_REACTORS
330
1302
102
}
330
1302
100
AcDbMlineStyle
2
Standard
70
0
3

62
256
51
90.0
52
90.0
71
2
49
0.5
62
256
6
BYLAYER
49
-0.5
62
256
6
BYLAYER
0
ACDBPLACEHOLDER
5
124E
102
{ACAD_REACTORS
330
1304
102
}
330
1304
0
XRECORD
5
1308
102
{ACAD_REACTORS
330
1305
102
}
330
1305
100
AcDbXrecord
280
1
1000
udnjVM6OT3ptXXPNDrqErnGX8
1070
5
1070
1
0
XRECORD
5
1306
102
{ACAD_REACTORS
330
12FF
102
}
330
12FF
100
AcDbXrecord
280
1
1
DWGPROPS COOKIE
2

3

4

6

7

8

9

300
=
301
HyperlinkBase=
40
0.0
41
0.0
42
0.0
1

90
0
0
ENDSEC
999
Created By VectorDraw
0
EOF
